<?xml version="1.0" encoding="UTF-8" standalone="no"?>
<svg
   xmlns:dc="http://purl.org/dc/elements/1.1/"
   xmlns:cc="http://creativecommons.org/ns#"
   xmlns:rdf="http://www.w3.org/1999/02/22-rdf-syntax-ns#"
   xmlns:svg="http://www.w3.org/2000/svg"
   xmlns="http://www.w3.org/2000/svg"
   xmlns:sodipodi="http://sodipodi.sourceforge.net/DTD/sodipodi-0.dtd"
   xmlns:inkscape="http://www.inkscape.org/namespaces/inkscape"
   width="210mm"
   height="297mm"
   viewBox="0 0 210 297"
   version="1.1"
   id="svg1549"
   inkscape:version="1.0.2 (e86c870879, 2021-01-15, custom)"
   sodipodi:docname="anuncie.svg"
   inkscape:export-filename="C:\Users\tatim\Desktop\FATEC DSM\1ยบ Semestre\ProjetoInterdisciplinar1\Design\anuncie.png"
   inkscape:export-xdpi="96"
   inkscape:export-ydpi="96">
  <defs
     id="defs1543">
    <rect
       x="49.764855"
       y="111.72698"
       width="44.398057"
       height="26.3461"
       id="rect2114" />
  </defs>
  <sodipodi:namedview
     id="base"
     pagecolor="#ffffff"
     bordercolor="#666666"
     borderopacity="1.0"
     inkscape:pageopacity="0.0"
     inkscape:pageshadow="2"
     inkscape:zoom="1.0846008"
     inkscape:cx="117.05433"
     inkscape:cy="561.00121"
     inkscape:document-units="mm"
     inkscape:current-layer="layer1"
     inkscape:document-rotation="0"
     showgrid="false"
     inkscape:showpageshadow="false"
     showborder="false"
     inkscape:window-width="1920"
     inkscape:window-height="1027"
     inkscape:window-x="-8"
     inkscape:window-y="-8"
     inkscape:window-maximized="1" />
  <metadata
     id="metadata1546">
    <rdf:RDF>
      <cc:Work
         rdf:about="">
        <dc:format>image/svg+xml</dc:format>
        <dc:type
           rdf:resource="http://purl.org/dc/dcmitype/StillImage" />
        <dc:title></dc:title>
      </cc:Work>
    </rdf:RDF>
  </metadata>
  <g
     inkscape:label="Layer 1"
     inkscape:groupmode="layer"
     id="layer1">
    <g
       aria-label="Anuncie  Aqui!!!"
       transform="matrix(4.8437705,-2.9588713,3.2743281,5.3601837,-591.44101,-301.48328)"
       id="text2112-5"
       style="font-style:normal;font-variant:normal;font-weight:normal;font-stretch:normal;font-size:7.05556px;line-height:1.25;font-family:'Bauhaus 93';-inkscape-font-specification:'Bauhaus 93, ';white-space:pre;shape-inside:url(#rect2114);opacity:0.439227;fill:#909090;fill-opacity:1;stroke:none;stroke-width:0.418696;stroke-miterlimit:4;stroke-dasharray:none;stroke-opacity:1">
      <path
         d="m 51.942927,115.85228 v 1.24023 H 51.53985 v 1.11966 h -1.398709 v -2.99035 q 0,-0.86816 0.471978,-1.34703 0.475424,-0.48231 1.333253,-0.48231 0.826823,0 1.22301,0.43752 0.396186,0.43409 0.396186,1.34359 v 3.03858 h -1.39871 v -2.94556 q 0,-0.27561 -0.06546,-0.38241 -0.06546,-0.10679 -0.234266,-0.10679 -0.327285,0 -0.327285,0.4892 v 0.58567 z"
         style="font-style:normal;font-variant:normal;font-weight:normal;font-stretch:normal;font-size:7.05556px;font-family:'Bauhaus 93';-inkscape-font-specification:'Bauhaus 93, ';fill:#909090;fill-opacity:1;stroke:none;stroke-width:0.418696;stroke-miterlimit:4;stroke-dasharray:none;stroke-opacity:1"
         id="path2118-5" />
      <path
         d="m 57.379291,118.21217 h -1.288467 v -1.93959 q 0,-0.29628 -0.244602,-0.29628 -0.241156,0 -0.241156,0.29628 v 1.93959 h -1.288467 v -1.91548 q 0,-0.67179 0.444418,-1.12999 0.444417,-0.46164 1.088651,-0.46164 0.73725,0 1.181668,0.53399 0.347955,0.41686 0.347955,1.161 z"
         style="font-style:normal;font-variant:normal;font-weight:normal;font-stretch:normal;font-size:7.05556px;font-family:'Bauhaus 93';-inkscape-font-specification:'Bauhaus 93, ';fill:#909090;fill-opacity:1;stroke:none;stroke-width:0.418696;stroke-miterlimit:4;stroke-dasharray:none;stroke-opacity:1"
         id="path2120-6" />
      <path
         d="m 58.130322,114.82564 h 1.288467 v 1.93959 q 0,0.29283 0.244602,0.29283 0.241156,0 0.241156,-0.29283 v -1.93959 h 1.288467 v 1.91547 q 0,0.66835 -0.444418,1.12999 -0.444417,0.4582 -1.08865,0.4582 -0.733806,0 -1.181669,-0.53399 -0.347955,-0.41686 -0.347955,-1.15755 z"
         style="font-style:normal;font-variant:normal;font-weight:normal;font-stretch:normal;font-size:7.05556px;font-family:'Bauhaus 93';-inkscape-font-specification:'Bauhaus 93, ';fill:#909090;fill-opacity:1;stroke:none;stroke-width:0.418696;stroke-miterlimit:4;stroke-dasharray:none;stroke-opacity:1"
         id="path2122-7" />
      <path
         d="M 65.006737,118.21217 H 63.71827 v -1.93959 q 0,-0.29628 -0.244602,-0.29628 -0.241157,0 -0.241157,0.29628 v 1.93959 h -1.288466 v -1.91548 q 0,-0.67179 0.444417,-1.12999 0.444418,-0.46164 1.088651,-0.46164 0.737251,0 1.181669,0.53399 0.347955,0.41686 0.347955,1.161 z"
         style="font-style:normal;font-variant:normal;font-weight:normal;font-stretch:normal;font-size:7.05556px;font-family:'Bauhaus 93';-inkscape-font-specification:'Bauhaus 93, ';fill:#909090;fill-opacity:1;stroke:none;stroke-width:0.418696;stroke-miterlimit:4;stroke-dasharray:none;stroke-opacity:1"
         id="path2124-8" />
      <path
         d="m 67.866168,116.63087 1.278131,-0.0482 q -0.05512,0.74414 -0.55466,1.22301 -0.49954,0.47887 -1.21612,0.47887 -0.757921,0 -1.281576,-0.5271 -0.52021,-0.5271 -0.52021,-1.29192 0,-0.72691 0.5271,-1.24368 0.5271,-0.51676 1.264351,-0.51676 0.644233,0 1.136882,0.40652 0.492649,0.40652 0.613228,1.03697 l -1.305693,0.0482 q -0.168809,-0.22049 -0.427192,-0.22049 -0.220486,0 -0.361735,0.14469 -0.141249,0.1447 -0.141249,0.36518 0,0.22394 0.148139,0.37552 0.151585,0.15158 0.375516,0.15158 0.327284,0 0.465088,-0.3824 z"
         style="font-style:normal;font-variant:normal;font-weight:normal;font-stretch:normal;font-size:7.05556px;font-family:'Bauhaus 93';-inkscape-font-specification:'Bauhaus 93, ';fill:#909090;fill-opacity:1;stroke:none;stroke-width:0.418696;stroke-miterlimit:4;stroke-dasharray:none;stroke-opacity:1"
         id="path2126-1" />
      <path
         d="m 70.994316,114.77741 v 3.43476 h -1.288467 v -3.43476 z m -0.640788,-1.53307 q 0.261827,0 0.451308,0.18603 0.192925,0.18259 0.192925,0.43409 0,0.26871 -0.18259,0.44097 -0.179145,0.17225 -0.461643,0.17225 -0.282498,0 -0.465088,-0.17225 -0.179146,-0.17226 -0.179146,-0.44097 0,-0.2515 0.189481,-0.43409 0.192925,-0.18603 0.454753,-0.18603 z"
         style="font-style:normal;font-variant:normal;font-weight:normal;font-stretch:normal;font-size:7.05556px;font-family:'Bauhaus 93';-inkscape-font-specification:'Bauhaus 93, ';fill:#909090;fill-opacity:1;stroke:none;stroke-width:0.418696;stroke-miterlimit:4;stroke-dasharray:none;stroke-opacity:1"
         id="path2128-4" />
      <path
         d="m 75.128434,116.70322 h -1.953371 q -0.04479,-0.14814 -0.04479,-0.27217 0,-0.17225 0.06201,-0.33762 h 0.654568 q -0.0689,-0.3824 -0.430637,-0.3824 -0.241157,0 -0.392741,0.2067 -0.151584,0.20326 -0.151584,0.52366 0,0.33417 0.144694,0.54088 0.148139,0.2067 0.385851,0.2067 0.192925,0 0.37207,-0.19292 l 0.733806,0.88194 q -0.513319,0.40308 -1.140327,0.40308 -0.764812,0 -1.285022,-0.51332 -0.520209,-0.51332 -0.520209,-1.27124 0,-0.75448 0.523654,-1.27469 0.5271,-0.52021 1.291912,-0.52021 0.747586,0 1.254016,0.50988 0.509874,0.50643 0.509874,1.25057 0,0.0758 -0.01378,0.24116 z"
         style="font-style:normal;font-variant:normal;font-weight:normal;font-stretch:normal;font-size:7.05556px;font-family:'Bauhaus 93';-inkscape-font-specification:'Bauhaus 93, ';fill:#909090;fill-opacity:1;stroke:none;stroke-width:0.418696;stroke-miterlimit:4;stroke-dasharray:none;stroke-opacity:1"
         id="path2130-3" />
      <path
         d="m 51.942927,124.67173 v 1.24023 H 51.53985 v 1.11966 h -1.398709 v -2.99035 q 0,-0.86816 0.471978,-1.34703 0.475424,-0.48231 1.333253,-0.48231 0.826823,0 1.22301,0.43752 0.396186,0.43409 0.396186,1.34359 v 3.03858 h -1.39871 v -2.94556 q 0,-0.27561 -0.06546,-0.38241 -0.06546,-0.10679 -0.234266,-0.10679 -0.327285,0 -0.327285,0.4892 v 0.58567 z"
         style="font-style:normal;font-variant:normal;font-weight:normal;font-stretch:normal;font-size:7.05556px;font-family:'Bauhaus 93';-inkscape-font-specification:'Bauhaus 93, ';fill:#909090;fill-opacity:1;stroke:none;stroke-width:0.418696;stroke-miterlimit:4;stroke-dasharray:none;stroke-opacity:1"
         id="path2132-5" />
      <path
         d="m 56.431889,128.30286 v -2.81809 q 0,-0.68557 -0.499539,-0.68557 -0.203261,0 -0.3514,0.14469 -0.148139,0.14125 -0.148139,0.34451 0,0.20326 0.141249,0.3514 0.144694,0.14814 0.34451,0.14814 0.155029,0 0.316949,-0.12747 v 1.41938 q -0.227377,0.0241 -0.34451,0.0241 -0.716581,0 -1.240235,-0.53055 -0.523655,-0.53054 -0.523655,-1.2609 0,-0.75104 0.5271,-1.2678 0.5271,-0.51677 1.295356,-0.51677 0.385851,0 0.751032,0.16881 0.368625,0.16881 0.606337,0.45476 0.413412,0.49609 0.413412,1.28502 v 2.86632 z"
         style="font-style:normal;font-variant:normal;font-weight:normal;font-stretch:normal;font-size:7.05556px;font-family:'Bauhaus 93';-inkscape-font-specification:'Bauhaus 93, ';fill:#909090;fill-opacity:1;stroke:none;stroke-width:0.418696;stroke-miterlimit:4;stroke-dasharray:none;stroke-opacity:1"
         id="path2134-7" />
      <path
         d="m 58.39904,123.64509 h 1.288466 v 1.93959 q 0,0.29283 0.244602,0.29283 0.241157,0 0.241157,-0.29283 v -1.93959 h 1.288467 v 1.91547 q 0,0.66835 -0.444418,1.12999 -0.444417,0.4582 -1.088651,0.4582 -0.733805,0 -1.181668,-0.53399 -0.347955,-0.41685 -0.347955,-1.15755 z"
         style="font-style:normal;font-variant:normal;font-weight:normal;font-stretch:normal;font-size:7.05556px;font-family:'Bauhaus 93';-inkscape-font-specification:'Bauhaus 93, ';fill:#909090;fill-opacity:1;stroke:none;stroke-width:0.418696;stroke-miterlimit:4;stroke-dasharray:none;stroke-opacity:1"
         id="path2136-4" />
      <path
         d="m 63.50123,123.59686 v 3.43476 h -1.288467 v -3.43476 z m -0.640788,-1.53307 q 0.261827,0 0.451308,0.18603 0.192925,0.18259 0.192925,0.43409 0,0.26871 -0.18259,0.44097 -0.179145,0.17225 -0.461643,0.17225 -0.282498,0 -0.465088,-0.17225 -0.179145,-0.17226 -0.179145,-0.44097 0,-0.2515 0.18948,-0.43409 0.192925,-0.18603 0.454753,-0.18603 z"
         style="font-style:normal;font-variant:normal;font-weight:normal;font-stretch:normal;font-size:7.05556px;font-family:'Bauhaus 93';-inkscape-font-specification:'Bauhaus 93, ';fill:#909090;fill-opacity:1;stroke:none;stroke-width:0.418696;stroke-miterlimit:4;stroke-dasharray:none;stroke-opacity:1"
         id="path2138-0" />
      <path
         d="m 66.067827,122.32906 -0.02411,2.918 h -1.22301 l -0.07235,-2.918 z m -0.664903,3.15916 q 0.337619,0 0.578776,0.2446 0.244602,0.2446 0.244602,0.58222 0,0.33762 -0.241157,0.57533 -0.241157,0.23427 -0.582221,0.23427 -0.354845,0 -0.585667,-0.22738 -0.227376,-0.23082 -0.227376,-0.58567 0,-0.34451 0.237711,-0.58222 0.237712,-0.24115 0.575332,-0.24115 z"
         style="font-style:normal;font-variant:normal;font-weight:normal;font-stretch:normal;font-size:7.05556px;font-family:'Bauhaus 93';-inkscape-font-specification:'Bauhaus 93, ';fill:#909090;fill-opacity:1;stroke:none;stroke-width:0.418696;stroke-miterlimit:4;stroke-dasharray:none;stroke-opacity:1"
         id="path2140-0" />
      <path
         d="m 69.113294,122.32906 -0.02412,2.918 h -1.223009 l -0.07235,-2.918 z m -0.664904,3.15916 q 0.33762,0 0.578776,0.2446 0.244602,0.2446 0.244602,0.58222 0,0.33762 -0.241156,0.57533 -0.241157,0.23427 -0.582222,0.23427 -0.354845,0 -0.585667,-0.22738 -0.227376,-0.23082 -0.227376,-0.58567 0,-0.34451 0.237712,-0.58222 0.237711,-0.24115 0.575331,-0.24115 z"
         style="font-style:normal;font-variant:normal;font-weight:normal;font-stretch:normal;font-size:7.05556px;font-family:'Bauhaus 93';-inkscape-font-specification:'Bauhaus 93, ';fill:#909090;fill-opacity:1;stroke:none;stroke-width:0.418696;stroke-miterlimit:4;stroke-dasharray:none;stroke-opacity:1"
         id="path2142-0" />
      <path
         d="m 72.158759,122.32906 -0.02412,2.918 h -1.22301 l -0.07235,-2.918 z m -0.664903,3.15916 q 0.337619,0 0.578776,0.2446 0.244602,0.2446 0.244602,0.58222 0,0.33762 -0.241157,0.57533 -0.241157,0.23427 -0.582221,0.23427 -0.354846,0 -0.585667,-0.22738 -0.227377,-0.23082 -0.227377,-0.58567 0,-0.34451 0.237712,-0.58222 0.237712,-0.24115 0.575332,-0.24115 z"
         style="font-style:normal;font-variant:normal;font-weight:normal;font-stretch:normal;font-size:7.05556px;font-family:'Bauhaus 93';-inkscape-font-specification:'Bauhaus 93, ';fill:#909090;fill-opacity:1;stroke:none;stroke-width:0.418696;stroke-miterlimit:4;stroke-dasharray:none;stroke-opacity:1"
         id="path2144-2" />
    </g>
    <g
       aria-label="Anuncie 
Aqui!!!"
       transform="matrix(4.8437705,-2.9588713,3.2743281,5.3601837,-594.42676,-302.29509)"
       id="text2112"
       style="font-style:normal;font-variant:normal;font-weight:normal;font-stretch:normal;font-size:7.05556px;line-height:1.25;font-family:'Bauhaus 93';-inkscape-font-specification:'Bauhaus 93, ';white-space:pre;shape-inside:url(#rect2114);fill:#a36a80;fill-opacity:1;stroke:#031c8b;stroke-width:0.418696;stroke-miterlimit:4;stroke-dasharray:none;stroke-opacity:1">
      <path
         d="m 51.942927,115.85228 v 1.24023 H 51.53985 v 1.11966 h -1.398709 v -2.99035 q 0,-0.86816 0.471978,-1.34703 0.475424,-0.48231 1.333253,-0.48231 0.826823,0 1.22301,0.43752 0.396186,0.43409 0.396186,1.34359 v 3.03858 h -1.39871 v -2.94556 q 0,-0.27561 -0.06546,-0.38241 -0.06546,-0.10679 -0.234266,-0.10679 -0.327285,0 -0.327285,0.4892 v 0.58567 z"
         style="font-style:normal;font-variant:normal;font-weight:normal;font-stretch:normal;font-size:7.05556px;font-family:'Bauhaus 93';-inkscape-font-specification:'Bauhaus 93, ';fill:#a36a80;fill-opacity:1;stroke:#031c8b;stroke-width:0.418696;stroke-miterlimit:4;stroke-dasharray:none;stroke-opacity:1"
         id="path2118" />
      <path
         d="m 57.379291,118.21217 h -1.288467 v -1.93959 q 0,-0.29628 -0.244602,-0.29628 -0.241156,0 -0.241156,0.29628 v 1.93959 h -1.288467 v -1.91548 q 0,-0.67179 0.444418,-1.12999 0.444417,-0.46164 1.088651,-0.46164 0.73725,0 1.181668,0.53399 0.347955,0.41686 0.347955,1.161 z"
         style="font-style:normal;font-variant:normal;font-weight:normal;font-stretch:normal;font-size:7.05556px;font-family:'Bauhaus 93';-inkscape-font-specification:'Bauhaus 93, ';fill:#a36a80;fill-opacity:1;stroke:#031c8b;stroke-width:0.418696;stroke-miterlimit:4;stroke-dasharray:none;stroke-opacity:1"
         id="path2120" />
      <path
         d="m 58.130322,114.82564 h 1.288467 v 1.93959 q 0,0.29283 0.244602,0.29283 0.241156,0 0.241156,-0.29283 v -1.93959 h 1.288467 v 1.91547 q 0,0.66835 -0.444418,1.12999 -0.444417,0.4582 -1.08865,0.4582 -0.733806,0 -1.181669,-0.53399 -0.347955,-0.41686 -0.347955,-1.15755 z"
         style="font-style:normal;font-variant:normal;font-weight:normal;font-stretch:normal;font-size:7.05556px;font-family:'Bauhaus 93';-inkscape-font-specification:'Bauhaus 93, ';fill:#a36a80;fill-opacity:1;stroke:#031c8b;stroke-width:0.418696;stroke-miterlimit:4;stroke-dasharray:none;stroke-opacity:1"
         id="path2122" />
      <path
         d="M 65.006737,118.21217 H 63.71827 v -1.93959 q 0,-0.29628 -0.244602,-0.29628 -0.241157,0 -0.241157,0.29628 v 1.93959 h -1.288466 v -1.91548 q 0,-0.67179 0.444417,-1.12999 0.444418,-0.46164 1.088651,-0.46164 0.737251,0 1.181669,0.53399 0.347955,0.41686 0.347955,1.161 z"
         style="font-style:normal;font-variant:normal;font-weight:normal;font-stretch:normal;font-size:7.05556px;font-family:'Bauhaus 93';-inkscape-font-specification:'Bauhaus 93, ';fill:#a36a80;fill-opacity:1;stroke:#031c8b;stroke-width:0.418696;stroke-miterlimit:4;stroke-dasharray:none;stroke-opacity:1"
         id="path2124" />
      <path
         d="m 67.866168,116.63087 1.278131,-0.0482 q -0.05512,0.74414 -0.55466,1.22301 -0.49954,0.47887 -1.21612,0.47887 -0.757921,0 -1.281576,-0.5271 -0.52021,-0.5271 -0.52021,-1.29192 0,-0.72691 0.5271,-1.24368 0.5271,-0.51676 1.264351,-0.51676 0.644233,0 1.136882,0.40652 0.492649,0.40652 0.613228,1.03697 l -1.305693,0.0482 q -0.168809,-0.22049 -0.427192,-0.22049 -0.220486,0 -0.361735,0.14469 -0.141249,0.1447 -0.141249,0.36518 0,0.22394 0.148139,0.37552 0.151585,0.15158 0.375516,0.15158 0.327284,0 0.465088,-0.3824 z"
         style="font-style:normal;font-variant:normal;font-weight:normal;font-stretch:normal;font-size:7.05556px;font-family:'Bauhaus 93';-inkscape-font-specification:'Bauhaus 93, ';fill:#a36a80;fill-opacity:1;stroke:#031c8b;stroke-width:0.418696;stroke-miterlimit:4;stroke-dasharray:none;stroke-opacity:1"
         id="path2126" />
      <path
         d="m 70.994316,114.77741 v 3.43476 h -1.288467 v -3.43476 z m -0.640788,-1.53307 q 0.261827,0 0.451308,0.18603 0.192925,0.18259 0.192925,0.43409 0,0.26871 -0.18259,0.44097 -0.179145,0.17225 -0.461643,0.17225 -0.282498,0 -0.465088,-0.17225 -0.179146,-0.17226 -0.179146,-0.44097 0,-0.2515 0.189481,-0.43409 0.192925,-0.18603 0.454753,-0.18603 z"
         style="font-style:normal;font-variant:normal;font-weight:normal;font-stretch:normal;font-size:7.05556px;font-family:'Bauhaus 93';-inkscape-font-specification:'Bauhaus 93, ';fill:#a36a80;fill-opacity:1;stroke:#031c8b;stroke-width:0.418696;stroke-miterlimit:4;stroke-dasharray:none;stroke-opacity:1"
         id="path2128" />
      <path
         d="m 75.128434,116.70322 h -1.953371 q -0.04479,-0.14814 -0.04479,-0.27217 0,-0.17225 0.06201,-0.33762 h 0.654568 q -0.0689,-0.3824 -0.430637,-0.3824 -0.241157,0 -0.392741,0.2067 -0.151584,0.20326 -0.151584,0.52366 0,0.33417 0.144694,0.54088 0.148139,0.2067 0.385851,0.2067 0.192925,0 0.37207,-0.19292 l 0.733806,0.88194 q -0.513319,0.40308 -1.140327,0.40308 -0.764812,0 -1.285022,-0.51332 -0.520209,-0.51332 -0.520209,-1.27124 0,-0.75448 0.523654,-1.27469 0.5271,-0.52021 1.291912,-0.52021 0.747586,0 1.254016,0.50988 0.509874,0.50643 0.509874,1.25057 0,0.0758 -0.01378,0.24116 z"
         style="font-style:normal;font-variant:normal;font-weight:normal;font-stretch:normal;font-size:7.05556px;font-family:'Bauhaus 93';-inkscape-font-specification:'Bauhaus 93, ';fill:#a36a80;fill-opacity:1;stroke:#031c8b;stroke-width:0.418696;stroke-miterlimit:4;stroke-dasharray:none;stroke-opacity:1"
         id="path2130" />
      <path
         d="m 51.942927,124.67173 v 1.24023 H 51.53985 v 1.11966 h -1.398709 v -2.99035 q 0,-0.86816 0.471978,-1.34703 0.475424,-0.48231 1.333253,-0.48231 0.826823,0 1.22301,0.43752 0.396186,0.43409 0.396186,1.34359 v 3.03858 h -1.39871 v -2.94556 q 0,-0.27561 -0.06546,-0.38241 -0.06546,-0.10679 -0.234266,-0.10679 -0.327285,0 -0.327285,0.4892 v 0.58567 z"
         style="font-style:normal;font-variant:normal;font-weight:normal;font-stretch:normal;font-size:7.05556px;font-family:'Bauhaus 93';-inkscape-font-specification:'Bauhaus 93, ';fill:#a36a80;fill-opacity:1;stroke:#031c8b;stroke-width:0.418696;stroke-miterlimit:4;stroke-dasharray:none;stroke-opacity:1"
         id="path2132" />
      <path
         d="m 56.431889,128.30286 v -2.81809 q 0,-0.68557 -0.499539,-0.68557 -0.203261,0 -0.3514,0.14469 -0.148139,0.14125 -0.148139,0.34451 0,0.20326 0.141249,0.3514 0.144694,0.14814 0.34451,0.14814 0.155029,0 0.316949,-0.12747 v 1.41938 q -0.227377,0.0241 -0.34451,0.0241 -0.716581,0 -1.240235,-0.53055 -0.523655,-0.53054 -0.523655,-1.2609 0,-0.75104 0.5271,-1.2678 0.5271,-0.51677 1.295356,-0.51677 0.385851,0 0.751032,0.16881 0.368625,0.16881 0.606337,0.45476 0.413412,0.49609 0.413412,1.28502 v 2.86632 z"
         style="font-style:normal;font-variant:normal;font-weight:normal;font-stretch:normal;font-size:7.05556px;font-family:'Bauhaus 93';-inkscape-font-specification:'Bauhaus 93, ';fill:#a36a80;fill-opacity:1;stroke:#031c8b;stroke-width:0.418696;stroke-miterlimit:4;stroke-dasharray:none;stroke-opacity:1"
         id="path2134" />
      <path
         d="m 58.39904,123.64509 h 1.288466 v 1.93959 q 0,0.29283 0.244602,0.29283 0.241157,0 0.241157,-0.29283 v -1.93959 h 1.288467 v 1.91547 q 0,0.66835 -0.444418,1.12999 -0.444417,0.4582 -1.088651,0.4582 -0.733805,0 -1.181668,-0.53399 -0.347955,-0.41685 -0.347955,-1.15755 z"
         style="font-style:normal;font-variant:normal;font-weight:normal;font-stretch:normal;font-size:7.05556px;font-family:'Bauhaus 93';-inkscape-font-specification:'Bauhaus 93, ';fill:#a36a80;fill-opacity:1;stroke:#031c8b;stroke-width:0.418696;stroke-miterlimit:4;stroke-dasharray:none;stroke-opacity:1"
         id="path2136" />
      <path
         d="m 63.50123,123.59686 v 3.43476 h -1.288467 v -3.43476 z m -0.640788,-1.53307 q 0.261827,0 0.451308,0.18603 0.192925,0.18259 0.192925,0.43409 0,0.26871 -0.18259,0.44097 -0.179145,0.17225 -0.461643,0.17225 -0.282498,0 -0.465088,-0.17225 -0.179145,-0.17226 -0.179145,-0.44097 0,-0.2515 0.18948,-0.43409 0.192925,-0.18603 0.454753,-0.18603 z"
         style="font-style:normal;font-variant:normal;font-weight:normal;font-stretch:normal;font-size:7.05556px;font-family:'Bauhaus 93';-inkscape-font-specification:'Bauhaus 93, ';fill:#a36a80;fill-opacity:1;stroke:#031c8b;stroke-width:0.418696;stroke-miterlimit:4;stroke-dasharray:none;stroke-opacity:1"
         id="path2138" />
      <path
         d="m 66.067827,122.32906 -0.02411,2.918 h -1.22301 l -0.07235,-2.918 z m -0.664903,3.15916 q 0.337619,0 0.578776,0.2446 0.244602,0.2446 0.244602,0.58222 0,0.33762 -0.241157,0.57533 -0.241157,0.23427 -0.582221,0.23427 -0.354845,0 -0.585667,-0.22738 -0.227376,-0.23082 -0.227376,-0.58567 0,-0.34451 0.237711,-0.58222 0.237712,-0.24115 0.575332,-0.24115 z"
         style="font-style:normal;font-variant:normal;font-weight:normal;font-stretch:normal;font-size:7.05556px;font-family:'Bauhaus 93';-inkscape-font-specification:'Bauhaus 93, ';fill:#a36a80;fill-opacity:1;stroke:#031c8b;stroke-width:0.418696;stroke-miterlimit:4;stroke-dasharray:none;stroke-opacity:1"
         id="path2140" />
      <path
         d="m 69.113294,122.32906 -0.02412,2.918 h -1.223009 l -0.07235,-2.918 z m -0.664904,3.15916 q 0.33762,0 0.578776,0.2446 0.244602,0.2446 0.244602,0.58222 0,0.33762 -0.241156,0.57533 -0.241157,0.23427 -0.582222,0.23427 -0.354845,0 -0.585667,-0.22738 -0.227376,-0.23082 -0.227376,-0.58567 0,-0.34451 0.237712,-0.58222 0.237711,-0.24115 0.575331,-0.24115 z"
         style="font-style:normal;font-variant:normal;font-weight:normal;font-stretch:normal;font-size:7.05556px;font-family:'Bauhaus 93';-inkscape-font-specification:'Bauhaus 93, ';fill:#a36a80;fill-opacity:1;stroke:#031c8b;stroke-width:0.418696;stroke-miterlimit:4;stroke-dasharray:none;stroke-opacity:1"
         id="path2142" />
      <path
         d="m 72.158759,122.32906 -0.02412,2.918 h -1.22301 l -0.07235,-2.918 z m -0.664903,3.15916 q 0.337619,0 0.578776,0.2446 0.244602,0.2446 0.244602,0.58222 0,0.33762 -0.241157,0.57533 -0.241157,0.23427 -0.582221,0.23427 -0.354846,0 -0.585667,-0.22738 -0.227377,-0.23082 -0.227377,-0.58567 0,-0.34451 0.237712,-0.58222 0.237712,-0.24115 0.575332,-0.24115 z"
         style="font-style:normal;font-variant:normal;font-weight:normal;font-stretch:normal;font-size:7.05556px;font-family:'Bauhaus 93';-inkscape-font-specification:'Bauhaus 93, ';fill:#a36a80;fill-opacity:1;stroke:#031c8b;stroke-width:0.418696;stroke-miterlimit:4;stroke-dasharray:none;stroke-opacity:1"
         id="path2144" />
    </g>
  </g>
</svg>
