<?xml version="1.0" encoding="UTF-8" standalone="no"?>
<svg
   xmlns:dc="http://purl.org/dc/elements/1.1/"
   xmlns:cc="http://creativecommons.org/ns#"
   xmlns:rdf="http://www.w3.org/1999/02/22-rdf-syntax-ns#"
   xmlns:svg="http://www.w3.org/2000/svg"
   xmlns="http://www.w3.org/2000/svg"
   xmlns:sodipodi="http://sodipodi.sourceforge.net/DTD/sodipodi-0.dtd"
   xmlns:inkscape="http://www.inkscape.org/namespaces/inkscape"
   width="210mm"
   height="297mm"
   viewBox="0 0 210 297"
   version="1.1"
   id="svg1314"
   inkscape:version="1.0.2 (e86c870879, 2021-01-15, custom)"
   sodipodi:docname="homem.svg"
   inkscape:export-filename="C:\Users\tatim\Desktop\FATEC DSM\1ยบ Semestre\ProjetoInterdisciplinar1\Design\portal8.png"
   inkscape:export-xdpi="96"
   inkscape:export-ydpi="96">
  <defs
     id="defs1308">
    <marker
       style="overflow:visible"
       id="Arrow1Sstart"
       refX="0.0"
       refY="0.0"
       orient="auto"
       inkscape:stockid="Arrow1Sstart"
       inkscape:isstock="true">
      <path
         transform="scale(0.2) translate(6,0)"
         style="fill-rule:evenodd;stroke:#ffffff;stroke-width:1pt;stroke-opacity:1;fill:#ffffff;fill-opacity:1"
         d="M 0.0,0.0 L 5.0,-5.0 L -12.5,0.0 L 5.0,5.0 L 0.0,0.0 z "
         id="path899" />
    </marker>
    <marker
       style="overflow:visible"
       id="Arrow1Mstart-9"
       refX="0"
       refY="0"
       orient="auto"
       inkscape:stockid="Arrow1Mstart"
       inkscape:isstock="true">
      <path
         transform="matrix(0.4,0,0,0.4,4,0)"
         style="fill:#ffffff;fill-opacity:1;fill-rule:evenodd;stroke:#ffffff;stroke-width:1pt;stroke-opacity:1"
         d="M 0,0 5,-5 -12.5,0 5,5 Z"
         id="path983-3" />
    </marker>
  </defs>
  <sodipodi:namedview
     id="base"
     pagecolor="#ffffff"
     bordercolor="#666666"
     borderopacity="1.0"
     inkscape:pageopacity="0.0"
     inkscape:pageshadow="2"
     inkscape:zoom="0.17533127"
     inkscape:cx="-307.61705"
     inkscape:cy="1265.4177"
     inkscape:document-units="mm"
     inkscape:current-layer="layer1"
     inkscape:document-rotation="0"
     showgrid="false"
     showborder="false"
     inkscape:showpageshadow="false"
     inkscape:window-width="1366"
     inkscape:window-height="715"
     inkscape:window-x="272"
     inkscape:window-y="1072"
     inkscape:window-maximized="1" />
  <metadata
     id="metadata1311">
    <rdf:RDF>
      <cc:Work
         rdf:about="">
        <dc:format>image/svg+xml</dc:format>
        <dc:type
           rdf:resource="http://purl.org/dc/dcmitype/StillImage" />
        <dc:title />
      </cc:Work>
    </rdf:RDF>
  </metadata>
  <g
     inkscape:label="Layer 1"
     inkscape:groupmode="layer"
     id="layer1">
    <ellipse
       style="fill:#ffffff;fill-opacity:1;stroke:#031c8b;stroke-width:20;stroke-linecap:round;stroke-linejoin:round;stroke-miterlimit:4;stroke-dasharray:none;stroke-opacity:1;paint-order:stroke fill markers"
       id="path835-3"
       cx="-371.15692"
       cy="343.06424"
       rx="166.81619"
       ry="158.01189" />
    <path
       id="rect896-9"
       style="fill:#4d6aec;fill-opacity:1;stroke:#001988;stroke-width:8;stroke-linecap:round;stroke-linejoin:round;stroke-miterlimit:4;stroke-dasharray:none;stroke-opacity:1;paint-order:stroke fill markers"
       d="m -367.98367,245.98743 a 60.486468,58.019325 0 0 0 -56.91355,38.37384 13.996867,15.823452 0 0 0 -0.57426,-0.0131 13.996867,15.823452 0 0 0 -13.99593,15.82321 13.996867,15.823452 0 0 0 12.27652,15.70356 60.486468,58.019325 0 0 0 46.91742,44.94122 h -4.1566 v 25.23686 a 98.220324,99.214453 0 0 0 -80.91998,86.66445 166.81619,158.01188 0 0 0 93.43174,27.10963 166.81619,158.01188 0 0 0 101.05697,-32.29471 98.220324,99.214453 0 0 0 -79.16194,-81.29188 v -25.42435 h -5.66729 a 60.486468,58.019325 0 0 0 47.55901,-48.42621 13.996867,15.823452 0 0 0 8.63231,-14.61566 13.996867,15.823452 0 0 0 -12.50179,-15.73213 60.486468,58.019325 0 0 0 -55.98263,-36.05403 z" />
    <path
       id="path1002"
       style="fill:#4d6aec;fill-opacity:1;stroke:#031c8b;stroke-width:8;stroke-linecap:round;stroke-linejoin:round;stroke-miterlimit:4;stroke-dasharray:none;stroke-opacity:1;paint-order:stroke fill markers"
       d="m -306.16286,294.03901 v 0.002 c -0.0382,4.3e-4 -0.0762,0.003 -0.11379,0.007 -2.6759,0.29911 -3.48976,9.58264 -1.85516,21.16161 0,0 -4.08029,-1.49488 -9.14058,0.51778 -8.21129,2.69953 -12.45377,11.18274 -10.29339,25.15466 1.6015,10.35395 6.54147,16.62652 11.48575,22.62118 l 12.13612,78.4801 c 0,0 -48.22979,3.31379 -75.00556,2.21917 -4.00525,-0.16374 -4.94753,-1.79662 -11.04692,-4.65773 -3.37761,-1.58436 -11.80883,-5.67931 -19.07582,-8.44781 -9.46415,-3.60556 -10.19928,-4.84034 -10.94955,-2.32866 -0.67524,2.271 7.86161,7.8253 16.03973,11.82141 -0.56983,1.353 -3.74498,0.966 -6.81201,0.85952 -5.65459,-0.26906 -6.99661,-0.0581 -12.80071,-0.28855 -12.71598,-0.16224 -21.20431,-0.97471 -21.32786,1.71511 -0.11866,2.58149 10.03928,2.94848 21.7369,4.30872 1.42782,1.09088 1.83046,3.25326 -1.42503,3.12035 -1.99068,-0.12512 -8.4468,0.93098 -10.54454,0.93072 -10.83011,1.24558 -16.84755,1.45388 -16.84497,3.50187 0.003,2.04732 5.25555,2.01971 16.08217,2.01956 1.79588,4e-5 10.07431,0.6439 11.80308,0.5519 2.0954,0.2263 2.51913,1.3555 0.42132,2.38216 -10.84606,1.06137 -22.50908,2.16638 -22.51087,4.1156 0.002,1.95201 5.39656,2.31701 16.25808,2.31702 1.70027,4.4e-4 8.0589,0.0527 10.39231,0.56207 2.13394,1.05261 -0.37567,1.64907 -0.37567,1.64907 -7.71678,0.36516 -13.13895,2.21286 -13.13479,3.39021 0.004,1.50145 7.88793,1.05737 18.23962,1.05729 6.6276,1.4e-4 12.67756,-1.54667 17.07015,-3.16171 14.74454,-5.42116 17.92672,-6.20022 20.45551,-6.19424 l 76.81231,0.18147 c 2.51252,2.27864 5.85952,3.55101 9.34133,3.55115 7.4524,3.9e-4 13.49415,-5.7102 13.49474,-12.75508 1.7e-4,-2.8354 -0.99898,-5.59003 -2.83964,-7.82876 l -14.40853,-93.17631 c 2.10366,-4.81442 1.56469,-10.59721 0.67033,-16.38395 -0.60843,-3.9364 -1.91549,-7.73931 -3.81722,-11.10621 -0.09,-3.26698 -0.43514,-6.90551 -1.00343,-10.57912 -1.83616,-11.87492 -4.32904,-21.33036 -7.11341,-21.29022 z"
       sodipodi:nodetypes="ccccccccsssccccsccccsccccccccsscssccsccc" />
    <text
       xml:space="preserve"
       style="font-style:normal;font-variant:normal;font-weight:normal;font-stretch:normal;font-size:141.111px;line-height:1.25;font-family:'Bauhaus 93';-inkscape-font-specification:'Bauhaus 93, ';fill:#a36a80;fill-opacity:1;stroke:#031c8b;stroke-width:10;stroke-miterlimit:4;stroke-dasharray:none;stroke-opacity:1;"
       x="-75.858459"
       y="348.68326"
       id="text942"><tspan
         sodipodi:role="line"
         id="tspan940"
         x="-75.858459"
         y="348.68326"
         style="font-style:normal;font-variant:normal;font-weight:normal;font-stretch:normal;font-size:141.111px;font-family:'Bauhaus 93';-inkscape-font-specification:'Bauhaus 93, ';fill:#a36a80;fill-opacity:1;stroke:#031c8b;stroke-width:10;stroke-miterlimit:4;stroke-dasharray:none;stroke-opacity:1;">Portal</tspan></text>
    <text
       xml:space="preserve"
       style="font-style:normal;font-variant:normal;font-weight:normal;font-stretch:normal;font-size:141.111px;line-height:1.25;font-family:'Bauhaus 93';-inkscape-font-specification:'Bauhaus 93, ';fill:#ffffff;fill-opacity:1;stroke:#031c8b;stroke-width:10;stroke-miterlimit:4;stroke-dasharray:none;stroke-opacity:1;"
       x="-174.50398"
       y="451.15967"
       id="text946"><tspan
         sodipodi:role="line"
         id="tspan944"
         x="-174.50398"
         y="451.15967"
         style="font-style:normal;font-variant:normal;font-weight:normal;font-stretch:normal;font-size:141.111px;font-family:'Bauhaus 93';-inkscape-font-specification:'Bauhaus 93, ';fill:#ffffff;fill-opacity:1;stroke:#031c8b;stroke-width:10;stroke-miterlimit:4;stroke-dasharray:none;stroke-opacity:1;">VISURDEZ</tspan></text>
    <path
       style="fill:none;stroke:#ffffff;stroke-width:8;stroke-linecap:round;stroke-linejoin:miter;stroke-miterlimit:4;stroke-dasharray:16, 16;stroke-dashoffset:0;stroke-opacity:1;marker-start:url(#Arrow1Sstart)"
       d="m -406.65047,413.27335 c 35.94171,-41.3898 53.51893,-61.75829 62.11075,-71.77939 8.59179,-10.02107 8.19819,-9.69468 8.19819,-9.69468"
       id="path975-4"
       sodipodi:nodetypes="csc" />
  </g>
</svg>
