<?xml version="1.0" encoding="UTF-8" standalone="no"?>
<svg
   xmlns:dc="http://purl.org/dc/elements/1.1/"
   xmlns:cc="http://creativecommons.org/ns#"
   xmlns:rdf="http://www.w3.org/1999/02/22-rdf-syntax-ns#"
   xmlns:svg="http://www.w3.org/2000/svg"
   xmlns="http://www.w3.org/2000/svg"
   xmlns:sodipodi="http://sodipodi.sourceforge.net/DTD/sodipodi-0.dtd"
   xmlns:inkscape="http://www.inkscape.org/namespaces/inkscape"
   width="210mm"
   height="297mm"
   viewBox="0 0 210 297"
   version="1.1"
   id="svg8"
   inkscape:version="1.0.2 (e86c870879, 2021-01-15, custom)"
   sodipodi:docname="logo.svg"
   inkscape:export-filename="C:\Users\tatim\Desktop\FATEC DSM\1ยบ Semestre\ProjetoInterdisciplinar1\Design\logo.png"
   inkscape:export-xdpi="96"
   inkscape:export-ydpi="96">
  <defs
     id="defs2">
    <inkscape:path-effect
       effect="perspective-envelope"
       up_left_point="67.520939,-306.45391"
       up_right_point="247.1734,-275.2289"
       down_left_point="68.49672,-10.730879"
       down_right_point="253.02809,-35.125416"
       id="path-effect3903"
       is_visible="true"
       lpeversion="1"
       deform_type="perspective"
       horizontal_mirror="false"
       vertical_mirror="false"
       overflow_perspective="false" />
    <inkscape:path-effect
       effect="perspective-envelope"
       up_left_point="-110.41637,173.83242"
       up_right_point="-25.253703,195.26667"
       down_left_point="-119.58748,241.6079"
       down_right_point="-28.467241,234.53394"
       id="path-effect1001"
       is_visible="true"
       lpeversion="1"
       deform_type="perspective"
       horizontal_mirror="false"
       vertical_mirror="false"
       overflow_perspective="false" />
    <inkscape:path-effect
       effect="perspective-envelope"
       up_left_point="106.23976,61.122132"
       up_right_point="208.13094,82.429256"
       down_left_point="107.18635,173.64507"
       down_right_point="208.13094,170.17647"
       id="path-effect1277"
       is_visible="true"
       lpeversion="1"
       deform_type="perspective"
       horizontal_mirror="false"
       vertical_mirror="false"
       overflow_perspective="false" />
    <marker
       style="overflow:visible"
       id="Arrow1Mstart-9-7"
       refX="0"
       refY="0"
       orient="auto"
       inkscape:stockid="Arrow1Mstart"
       inkscape:isstock="true">
      <path
         transform="matrix(0.4,0,0,0.4,4,0)"
         style="fill:#a56a7d;fill-opacity:1;fill-rule:evenodd;stroke:#a56a7d;stroke-width:1pt;stroke-opacity:1"
         d="M 0,0 5,-5 -12.5,0 5,5 Z"
         id="path983-3-8" />
    </marker>
  </defs>
  <sodipodi:namedview
     id="base"
     pagecolor="#ffffff"
     bordercolor="#666666"
     borderopacity="1.0"
     inkscape:pageopacity="0.0"
     inkscape:pageshadow="2"
     inkscape:zoom="0.38346428"
     inkscape:cx="1690.3448"
     inkscape:cy="-22.520023"
     inkscape:document-units="mm"
     inkscape:current-layer="layer1"
     inkscape:document-rotation="0"
     showgrid="false"
     inkscape:showpageshadow="false"
     showborder="false"
     inkscape:window-width="1920"
     inkscape:window-height="1027"
     inkscape:window-x="-8"
     inkscape:window-y="-8"
     inkscape:window-maximized="1" />
  <metadata
     id="metadata5">
    <rdf:RDF>
      <cc:Work
         rdf:about="">
        <dc:format>image/svg+xml</dc:format>
        <dc:type
           rdf:resource="http://purl.org/dc/dcmitype/StillImage" />
        <dc:title></dc:title>
      </cc:Work>
    </rdf:RDF>
  </metadata>
  <g
     inkscape:label="Layer 1"
     inkscape:groupmode="layer"
     id="layer1">
    <rect
       style="fill:#ffffff;fill-opacity:1;stroke:#031c8b;stroke-width:7.28316;stroke-linecap:round;stroke-linejoin:round;stroke-miterlimit:4;stroke-dasharray:none;stroke-dashoffset:0;stroke-opacity:1;paint-order:stroke fill markers"
       id="rect1536"
       width="199.60582"
       height="282.95306"
       x="176.70047"
       y="-129.57013"
       inkscape:export-xdpi="96"
       inkscape:export-ydpi="96" />
    <path
       style="opacity:0.648387;fill:#b8b8b8;fill-opacity:1;stroke:none;stroke-width:0.3854px;stroke-linecap:butt;stroke-linejoin:miter;stroke-opacity:1"
       d="m 212.45872,147.23178 144.59488,-15.67527 -78.32107,22.11243 -75.74482,-0.286 z"
       id="path1871"
       sodipodi:nodetypes="ccccc" />
    <text
       xml:space="preserve"
       style="font-style:normal;font-variant:normal;font-weight:normal;font-stretch:normal;font-size:141.111px;line-height:1.25;font-family:'Bauhaus 93';-inkscape-font-specification:'Bauhaus 93, ';fill:#a36a80;fill-opacity:1;stroke:#031c8b;stroke-width:10;stroke-miterlimit:4;stroke-dasharray:none;stroke-opacity:1"
       x="499.73553"
       y="34.429092"
       id="text942"><tspan
         sodipodi:role="line"
         id="tspan940"
         x="499.73553"
         y="34.429092"
         style="font-style:normal;font-variant:normal;font-weight:normal;font-stretch:normal;font-size:141.111px;font-family:'Bauhaus 93';-inkscape-font-specification:'Bauhaus 93, ';fill:#a36a80;fill-opacity:1;stroke:#031c8b;stroke-width:10;stroke-miterlimit:4;stroke-dasharray:none;stroke-opacity:1">Portal</tspan></text>
    <text
       xml:space="preserve"
       style="font-style:normal;font-variant:normal;font-weight:normal;font-stretch:normal;font-size:141.111px;line-height:1.25;font-family:'Bauhaus 93';-inkscape-font-specification:'Bauhaus 93, ';fill:#ffffff;fill-opacity:1;stroke:#031c8b;stroke-width:10;stroke-miterlimit:4;stroke-dasharray:none;stroke-opacity:1"
       x="401.09"
       y="136.90552"
       id="text946"><tspan
         sodipodi:role="line"
         id="tspan944"
         x="401.09"
         y="136.90552"
         style="font-style:normal;font-variant:normal;font-weight:normal;font-stretch:normal;font-size:141.111px;font-family:'Bauhaus 93';-inkscape-font-specification:'Bauhaus 93, ';fill:#ffffff;fill-opacity:1;stroke:#031c8b;stroke-width:10;stroke-miterlimit:4;stroke-dasharray:none;stroke-opacity:1">VISURDEZ</tspan></text>
    <path
       style="fill:#c6e7ee;fill-opacity:1;stroke:#031c8b;stroke-width:7.28316;stroke-linecap:butt;stroke-linejoin:miter;stroke-miterlimit:4;stroke-dasharray:none;stroke-opacity:1"
       d="m 176.70047,-129.57014 176.35034,30.459881 V 129.07239 l -176.35034,24.31055 v -282.95308"
       id="path1586" />
    <ellipse
       style="opacity:0.997238;fill:#031c8b;fill-opacity:1;stroke:none;stroke-width:6.6995;stroke-linecap:round;stroke-linejoin:round;paint-order:stroke fill markers"
       id="path955"
       cx="333.50769"
       cy="29.37636"
       rx="7.9224143"
       ry="6.7183719" />
    <g
       id="g3901"
       transform="matrix(0.83707387,0,0,0.83707387,129.47916,144.92377)"
       inkscape:path-effect="#path-effect3903">
      <path
         style="fill:#e4d2c5;fill-opacity:1;stroke:#000000;stroke-width:2;stroke-linecap:butt;stroke-linejoin:miter;stroke-miterlimit:4;stroke-dasharray:none;stroke-opacity:1"
         d="m 242.31534,-62.998823 c 0,0 0.33901,10.299216 1.45102,15.273826 1.11051,4.967924 2.99567,13.427936 2.99567,13.427936 l -30.26945,2.132994 -3.2329,-38.75157 29.74947,-4.977651 z"
         id="path960-3"
         inkscape:original-d="m 243.51422,-56.958523 c 0,0 0.12197,8.41611 1.3417,12.56318 1.21972,4.14708 3.29326,11.22149 3.29326,11.22149 l -35.98194,-1.46367 -2.80538,-30.73712 35.37208,-2.07353 z" />
      <path
         style="fill:#e4d2c5;fill-opacity:1;stroke:#000000;stroke-width:2;stroke-linecap:butt;stroke-linejoin:miter;stroke-miterlimit:4;stroke-dasharray:none;stroke-opacity:1"
         d="m 188.07034,-161.83953 3.21724,11.87216 -9.57358,19.86853 -31.40042,-14.9012 6.04831,-19.1678 z"
         id="path958-0"
         sodipodi:nodetypes="cccccc"
         inkscape:original-d="m 183.13774,-137.46051 3.29326,9.26993 -10.73359,15.49053 -32.19107,-11.35213 6.33285,-14.50608 z" />
      <path
         style="fill:#4d6aec;fill-opacity:1;stroke:#031c8b;stroke-width:2;stroke-linecap:butt;stroke-linejoin:miter;stroke-miterlimit:4;stroke-dasharray:none;stroke-opacity:1"
         d="m 191.28758,-149.96737 41.89341,20.25702 19.15497,66.200461 -32.28796,3.092645 0.56671,27.407893 -102.18919,13.236755 -0.39434,-57.54134 -38.523719,-11.850918 4.294556,-39.275026 18.883283,-2.26842 47.62828,-14.29174 8.94839,2.46224 5.96114,1.06782 8.53213,0.48548 3.92176,-0.59553 c 5.37545,-0.81628 10.63183,-3.61264 13.61058,-8.38734 z"
         id="path847-7"
         sodipodi:nodetypes="ccccccccccccccsc"
         inkscape:original-d="m 186.431,-128.19058 47.81329,16.22237 21.71114,55.375597 h -39.03126 v 21.71114 H 111.78371 l 0.1133,-40.56849 -33.950258,-9.834344 3.83168,-26.927853 16.58829,-1.46367 45.139618,-10.37635 8.97623,1.80955 6.08762,0.79041 8.87392,0.34962 4.15166,-0.46827 c 5.75385,-0.64898 11.48964,-2.85315 14.83523,-6.61971 z" />
      <path
         style="fill:none;stroke:#001988;stroke-width:2;stroke-linecap:round;stroke-linejoin:miter;stroke-miterlimit:4;stroke-dasharray:none;stroke-opacity:1"
         d="m 220.048,-60.417244 -0.54426,-26.32155 -0.21599,-0.291905"
         id="path849-6"
         inkscape:original-d="m 216.92417,-56.592613 v -20.9793 l -0.24394,-0.24394" />
      <path
         style="fill:#e4d2c5;fill-opacity:1;stroke:#000000;stroke-width:2;stroke-linecap:butt;stroke-linejoin:miter;stroke-miterlimit:4;stroke-dasharray:none;stroke-opacity:1"
         d="m 80.470719,-49.569577 c 0,0 -8.571069,3.190267 -10.272386,-7.449172 -1.703002,-10.649897 -4.463716,-24.581067 3.100383,-55.964381 7.392735,-30.67232 9.77774,-35.86962 9.77774,-35.86962 0,0 -7.894502,-4.33477 -7.520903,-12.31061 0.372593,-7.95437 3.389752,-11.32587 3.389752,-11.32587 0,0 -4.708848,-13.08764 0.5066,-20.96525 5.149005,-7.77724 9.926511,-0.64602 9.926511,-0.64602 0,0 4.459926,-6.0361 7.57417,-4.14242 3.094974,1.88196 3.869584,2.89204 3.869584,2.89204 0,0 3.4072,-4.10377 5.70011,-2.04232 2.28273,2.05228 2.8809,6.14222 2.87314,5.18772 -0.008,-0.95429 -0.61539,-18.72914 7.80675,-24.06313 8.21782,-5.20459 5.01193,24.08643 5.01193,24.08643 0,0 -0.33697,5.3822 -2.62409,14.98316 -2.3431,9.83595 -1.67885,15.58107 -3.32957,21.29877 -1.995,6.91016 -8.93912,12.14925 -10.85021,11.65342 -1.91876,-0.49782 -3.68591,21.2047 -3.45053,27.07487 0.23561,5.87569 3.86941,32.232618 3.86941,32.232618 z"
         id="path853-5"
         sodipodi:nodetypes="csscscscscssscsssscc"
         inkscape:original-d="m 78.607152,-58.300223 c 0,0 -7.19629,1.60549 -8.57625,-5.63932 -1.37997,-7.24481 -3.62241,-16.732065 2.75992,-37.776507 6.38233,-21.04444 8.45228,-24.66684 8.45228,-24.66684 0,0 -6.72732,-2.93243 -6.38233,-8.45228 0.34499,-5.51985 2.93242,-7.93479 2.93242,-7.93479 0,0 -3.9674,-8.96976 0.51748,-14.66211 4.48489,-5.69235 8.62478,-0.86248 8.62478,-0.86248 0,0 3.96739,-4.48488 6.72732,-3.27741 2.75993,1.20747 3.44991,1.89745 3.44991,1.89745 0,0 3.104918,-3.10492 5.174858,-1.72495 2.06995,1.37996 2.58743,4.31238 2.58743,3.6224 0,-0.68998 -0.42511,-13.54343 7.4173,-17.93952 7.80405,-4.37459 4.49356,17.40977 4.49356,17.40977 0,0 -0.36593,3.95873 -2.59611,11.05197 -2.2676,7.21226 -1.69864,11.36237 -3.27741,15.52459 -1.89745,5.00237 -8.27978,8.79726 -10.00473,8.45227 -1.724958,-0.34499 -3.449908,15.00711 -3.277418,19.147 0.1725,4.139882 3.247818,22.766422 3.247818,22.766422 z" />
      <path
         style="fill:#e4d2c5;fill-opacity:1;stroke:#000000;stroke-width:2;stroke-linecap:butt;stroke-linejoin:miter;stroke-miterlimit:4;stroke-dasharray:none;stroke-opacity:1"
         d="m 177.83478,-152.34063 c 3.67681,-1.83577 11.75738,-6.33636 16.5476,-18.86031 4.7199,-12.34006 6.14092,-18.28373 6.14092,-18.28373 0,0 2.83911,5.10169 5.17022,0.31667 2.31491,-4.75172 3.58317,-16.32334 3.2172,-19.7385 -0.36596,-3.41494 -2.66962,-6.37565 -2.66962,-6.37565 0,0 4.84921,-11.11207 2.18135,-25.89606 -2.794,-15.4831 -14.46353,-30.49006 -23.37061,-35.10977 -9.0898,-4.71448 -24.10381,-8.5259 -30.76028,-7.65039 -6.27697,0.82562 -17.25522,4.82659 -26.82785,19.81395 -9.82127,15.37661 -2.64922,40.81853 -2.64922,40.81853 0,0 -3.60437,3.63553 -3.02002,7.42712 0.58414,3.79034 3.08452,17.31117 4.19599,19.48923 1.10936,2.1739 7.80324,6.29966 8.69005,5.88654 0,0 4.06498,11.61702 8.03021,19.4131 3.66258,7.20102 9.85336,12.31716 9.85336,12.31716 0,0 8.69158,6.70235 12.98861,7.6636 4.25595,0.95206 8.45099,0.68132 12.28209,-1.23149 z"
         id="path857-55"
         sodipodi:nodetypes="sscsscsssscssssczs"
         inkscape:original-d="m 171.9461,-129.88333 c 3.95815,-1.47304 12.79426,-5.12433 18.31411,-15.12907 5.51986,-10.00473 7.24481,-14.83461 7.24481,-14.83461 0,0 3.10492,3.9674 5.86484,0 2.75993,-3.96739 4.48489,-13.45464 4.1399,-16.21457 -0.345,-2.75992 -2.93243,-5.00236 -2.93243,-5.00236 0,0 5.86485,-9.48725 3.10492,-21.38944 -2.88341,-12.43472 -15.86958,-23.28688 -25.70182,-25.87431 -9.83224,-2.58743 -25.70182,-3.6224 -32.60163,-2.06995 -6.40822,1.44186 -17.42204,5.86485 -26.90929,18.28452 -9.48726,12.41967 -2.93242,30.70419 -2.93242,30.70419 0,0 -3.44992,2.93242 -2.93242,5.69235 0.51748,2.75992 2.75993,12.59216 3.7949,14.14462 1.03497,1.55246 7.4173,4.31239 8.27978,3.96739 0,0 3.82449,8.48906 7.61939,14.18141 3.52862,5.29293 9.63733,9.01197 9.63733,9.01197 0,0 8.7158,4.9375 13.11903,5.61914 4.40324,0.68164 8.80487,0.42939 12.891,-1.09128 z" />
      <path
         id="path857-5-5"
         style="fill:#723123;fill-opacity:1;stroke:#000000;stroke-width:2;stroke-linecap:butt;stroke-linejoin:miter;stroke-miterlimit:4;stroke-dasharray:none;stroke-opacity:1"
         d="m 190.44393,-285.08893 c 0,0 0.73058,4.31959 0.89342,7.34399 0.0836,1.55298 -0.90644,3.32521 -1.89299,4.68938 -1.65475,-1.37793 -2.84582,-2.43036 -4.3926,-3.23261 -6.22927,-3.23085 -15.21155,-6.02926 -22.42022,-7.19743 -3.31659,-0.53741 -6.24865,-0.72766 -8.34005,-0.45257 -6.27698,0.82561 -17.2549,4.82617 -26.82751,19.81352 -9.82126,15.3766 -2.64944,40.81903 -2.64944,40.81903 0,0 3.92689,-4.0314 6.67422,1.77762 l 2.73461,5.78198 -1.67324,-6.6075 c 0,0 2.1836,4.57728 2.16056,2.50267 -0.023,-2.0736 -0.69587,-14.78067 2.7607,-21.26456 3.42404,-6.42293 4.27369,-8.13246 4.27369,-8.13246 0,0 1.11208,5.80101 1.46773,6.52279 0.35543,0.72132 1.57497,-7.00293 9.79167,-11.38518 l 5.01146,-2.67278 c 0,0 -4.53206,6.86854 -4.16628,8.92636 0.36569,2.05721 2.26904,2.36539 3.30997,1.8596 3.26118,-1.58466 8.22299,-6.04806 8.22299,-6.04806 0,0 2.41429,7.79307 4.40916,10.01387 1.98676,2.21176 -1.04491,-4.30304 3.63841,-6.12263 4.62991,-1.79883 7.78458,-1.17392 10.70318,0.93269 3.25739,2.35114 9.63735,11.91133 11.08423,15.28215 1.44319,3.36222 3.95587,15.14624 3.56839,18.95785 -0.25537,2.51207 -0.16291,3.00984 -0.32549,3.48292 0.65534,-1.51397 3.83822,-8.23463 7.78068,-5.78399 0,0 4.84902,-11.11203 2.18117,-25.89601 -1.28477,-7.11961 -4.42499,-14.0984 -8.30307,-20.02307 1.88507,-0.25915 4.03969,-0.67206 4.85836,-1.28667 1.55864,-1.17014 2.00655,-7.81243 1.91574,-7.09011 -0.0909,0.72263 -1.83341,2.74838 -3.46437,3.59711 -1.73516,0.90295 -2.09447,0.39352 -6.55289,1.29965 -8.21784,0.44435 0.16653,-1.34775 -0.0125,-1.57112 1.53075,-0.51679 4.47358,-3.0732 4.89271,-3.9172 0.71616,-1.44214 1.63754,-5.87836 1.63754,-5.87836 0,0 -2.89523,1.17109 -4.15541,2.43196 -1.26163,1.26231 -3.93189,2.42539 -3.93189,2.42539 0,0 0.31037,-3.68342 -0.24242,-7.35561 -0.55295,-3.67337 -4.62023,-6.5426 -4.62023,-6.5426 z"
         sodipodi:nodetypes="cscssssccccsscsscsscsssssccscsssccscscsc"
         inkscape:original-d="m 188.13863,-236.19764 c 0,0 0.73165,3.41549 0.85362,5.85494 0.0626,1.2522 -1.07959,2.82306 -2.20658,4.05815 -1.8126,-0.90168 -3.11209,-1.59769 -4.80532,-2.04328 -6.75967,-1.77886 -16.37262,-2.82382 -23.96288,-2.7988 -3.45012,0.0114 -6.48256,0.24401 -8.63875,0.72916 -6.40823,1.44185 -17.42171,5.86448 -26.90895,18.28415 -9.48726,12.41967 -2.93264,30.70459 -2.93264,30.70459 0,0 3.79461,-3.27741 6.38204,0.86248 l 2.58744,4.1398 -1.55236,-4.8302 c 0,0 2.07015,3.27742 2.07015,1.72496 0,-1.55246 -0.51778,-11.03965 2.93213,-16.21451 3.4499,-5.17487 4.31239,-6.55464 4.31239,-6.55464 0,0 1.03529,4.31219 1.38028,4.82968 0.34499,0.51748 1.65578,-5.48497 10.00456,-9.65936 l 5.17488,-2.58744 c 0,0 -4.74318,5.77836 -4.39819,7.33082 0.345,1.55246 2.28762,1.61118 3.36311,1.12138 3.38723,-1.54263 8.62479,-5.52008 8.62479,-5.52008 0,0 2.41506,5.86518 4.485,7.41764 2.06995,1.55245 -1.03517,-3.27743 3.9672,-5.17488 5.00237,-1.89745 8.41042,-1.72682 11.55743,-0.3452 3.53616,1.55246 10.43596,8.6248 11.98842,11.21224 1.55246,2.58743 4.14001,11.90191 3.62252,15.00683 -0.34049,2.04294 -0.24668,2.43756 -0.43977,2.8298 0.7707,-1.26545 4.52224,-6.93486 8.97827,-5.24464 0,0 5.86464,-9.48721 3.10471,-21.38939 -1.32677,-5.72171 -4.79465,-11.10598 -9.10797,-15.50655 2.16092,-0.44038 4.64585,-1.0423 5.6038,-1.649 1.82959,-1.15874 2.50063,-6.70871 2.37866,-6.09885 -0.12197,0.60986 -2.18622,2.50855 -4.08605,3.4153 -2.01239,0.96046 -2.41285,0.58713 -7.50864,1.88264 -9.2223,1.36041 0.21682,-1.12104 0.0187,-1.28116 1.74796,-0.61401 5.16144,-3.08532 5.66028,-3.83357 0.85381,-1.28072 2.01225,-5.06227 2.01225,-5.06227 0,0 -3.3508,1.3576 -4.8176,2.5619 -1.46346,1.20155 -4.51326,2.5001 -4.51326,2.5001 0,0 0.42692,-3.04904 -0.12196,-5.97638 -0.54887,-2.92735 -5.0617,-4.69636 -5.0617,-4.69636 z" />
      <path
         style="fill:#fcfbfb;fill-opacity:1;stroke:#000000;stroke-width:2;stroke-linecap:butt;stroke-linejoin:miter;stroke-miterlimit:4;stroke-dasharray:none;stroke-opacity:1"
         d="m 144.54698,-218.19409 c 0.0228,-3.59519 1.7121,-9.95944 5.71835,-10.11312 4.54891,-0.17449 6.65549,4.08308 7.1914,8.41497 0.53587,4.33151 0.0873,7.88076 -1.88604,10.56776 -3.02346,4.11671 -7.41533,1.08964 -8.65685,-0.61806 -1.24447,-1.71178 -2.38964,-4.65275 -2.36686,-8.25153 z"
         id="path886-3"
         sodipodi:nodetypes="zszssz"
         inkscape:original-d="m 138.6787,-178.93122 c 0.0665,-2.72583 1.82959,-7.68428 5.85469,-8.11118 4.61549,-0.48952 6.70849,2.62241 7.19638,5.91568 0.48789,3.29326 -0.0216,6.04924 -2.07353,8.23315 -3.12304,3.32382 -7.50132,1.28072 -8.72105,0.061 -1.21973,-1.21973 -2.32295,-3.3728 -2.25649,-6.09864 z" />
      <path
         style="fill:#fcfbfb;fill-opacity:1;stroke:#000000;stroke-width:2;stroke-linecap:butt;stroke-linejoin:miter;stroke-miterlimit:4;stroke-dasharray:none;stroke-opacity:1"
         d="m 175.23679,-215.47259 c 0.007,-3.47255 1.55707,-9.62549 5.29099,-9.78745 4.2411,-0.18395 6.22222,3.92342 6.73866,8.1079 0.51639,4.18413 0.11153,7.61508 -1.71878,10.21669 -2.80363,3.985 -6.90953,1.07214 -8.07325,-0.57403 -1.16641,-1.64996 -2.24493,-4.48722 -2.23762,-7.9631 z"
         id="path886-1-2"
         sodipodi:nodetypes="zszssz"
         inkscape:original-d="m 170.24945,-178.95493 c 0.0665,-2.72584 1.82959,-7.68428 5.85469,-8.11119 4.61549,-0.48952 6.70849,2.62242 7.19638,5.91568 0.48789,3.29326 -0.0216,6.04924 -2.07353,8.23315 -3.12304,3.32383 -7.50132,1.28072 -8.72105,0.061 -1.21973,-1.21973 -2.32295,-3.3728 -2.25649,-6.09863 z" />
      <ellipse
         style="fill:#000000;fill-opacity:1;stroke:#000000;stroke-width:2.06724;stroke-linecap:round;stroke-linejoin:round;stroke-miterlimit:4;stroke-dasharray:none;stroke-opacity:1;paint-order:stroke fill markers"
         id="path908-5"
         cx="145.02129"
         cy="-178.80925"
         rx="1.9789282"
         ry="2.7107644" />
      <ellipse
         style="fill:#000000;fill-opacity:1;stroke:#000000;stroke-width:2.06724;stroke-linecap:round;stroke-linejoin:round;stroke-miterlimit:4;stroke-dasharray:none;stroke-opacity:1;paint-order:stroke fill markers"
         id="path908-1-5"
         cx="177.34404"
         cy="-178.87024"
         rx="1.9789282"
         ry="2.7107644" />
      <path
         style="fill:none;stroke:#000000;stroke-width:2;stroke-linecap:butt;stroke-linejoin:miter;stroke-miterlimit:4;stroke-dasharray:none;stroke-opacity:1"
         d="m 175.33777,-229.55807 c 0,0 4.11931,-3.26675 7.30957,-2.69746 3.16672,0.56507 6.56088,6.54042 6.56088,6.54042"
         id="path932-2"
         sodipodi:nodetypes="csc"
         inkscape:original-d="m 170.59573,-190.0337 c 0,0 4.48489,-2.93243 7.9348,-2.75993 3.4499,0.17249 7.07231,4.65738 7.07231,4.65738" />
      <path
         style="fill:none;stroke:#000000;stroke-width:2;stroke-linecap:butt;stroke-linejoin:miter;stroke-miterlimit:4;stroke-dasharray:none;stroke-opacity:1"
         d="m 141.80498,-229.70083 c 0,0 3.40052,-5.77407 7.18795,-5.5862 3.75509,0.18627 7.35237,3.48988 7.35237,3.48988"
         id="path934-7"
         sodipodi:nodetypes="csc"
         inkscape:original-d="m 136.09665,-187.44627 c 0,0 3.44991,-4.65738 7.24481,-4.82988 3.7949,-0.17249 7.4173,2.06995 7.4173,2.06995" />
      <path
         style="fill:none;stroke:#000000;stroke-width:2;stroke-linecap:round;stroke-linejoin:miter;stroke-miterlimit:4;stroke-dasharray:none;stroke-opacity:1"
         d="m 127.05236,-216.5947 c 0,0 3.45129,3.30852 4.02858,7.06317 0.5771,3.75342 0.0966,9.05684 0.0966,9.05684"
         id="path936-4"
         inkscape:original-d="m 121.60703,-176.57906 c 0,0 3.27742,2.24244 3.7949,5.00237 0.51749,2.75992 0,6.72732 0,6.72732" />
      <path
         style="fill:none;stroke:#000000;stroke-width:2;stroke-linecap:round;stroke-linejoin:miter;stroke-miterlimit:4;stroke-dasharray:none;stroke-opacity:1"
         d="m 204.69427,-209.69171 c 0,0 -3.11571,3.36095 -3.49619,7.39164 -0.38125,4.03895 0.45039,7.73888 0.45039,7.73888"
         id="path938-4"
         inkscape:original-d="m 202.67988,-176.40657 c 0,0 -3.6224,2.93243 -4.13989,6.20984 -0.51748,3.27741 0.34499,6.20983 0.34499,6.20983" />
      <path
         style="fill:none;stroke:#000000;stroke-width:2;stroke-linecap:round;stroke-linejoin:miter;stroke-miterlimit:4;stroke-dasharray:none;stroke-opacity:1"
         d="m 160.82631,-199.56056 c 0,0 2.25932,5.98739 5.74283,5.53755 3.91371,-0.50537 5.18736,-4.99422 5.18736,-4.99422"
         id="path940-4"
         sodipodi:nodetypes="csc"
         inkscape:original-d="m 154.89865,-165.71185 c 0,0 2.24244,4.48488 5.86485,3.96739 4.10539,-0.58648 5.51985,-4.13989 5.51985,-4.13989" />
      <path
         style="fill:none;stroke:#000000;stroke-width:2;stroke-linecap:round;stroke-linejoin:miter;stroke-miterlimit:4;stroke-dasharray:none;stroke-opacity:1"
         d="m 156.53574,-180.51229 c 0,0 2.76989,3.09174 7.7298,4.18893 4.60068,1.01773 9.7687,0.20098 11.90774,-0.67197 4.47943,-1.82809 4.52983,-3.32705 4.52983,-3.32705"
         id="path944-0"
         sodipodi:nodetypes="cssc"
         inkscape:original-d="m 150.24065,-150.96275 c 0,0 2.77993,2.256 7.86296,2.92744 4.76589,0.62955 10.21137,-0.17412 12.49392,-0.92535 4.81895,-1.58602 4.89952,-2.75994 4.89952,-2.75994" />
      <path
         style="fill:none;stroke:#031c8b;stroke-width:2;stroke-linecap:butt;stroke-linejoin:miter;stroke-miterlimit:4;stroke-dasharray:none;stroke-opacity:1"
         d="m 142.85776,-142.91719 c 0,0 2.02387,2.17375 7.68902,4.3343 2.51047,0.95744 5.55615,1.70486 9.3719,2.41839 8.32017,1.55587 15.01261,1.61579 21.59593,-0.36463 5.53649,-1.6655 4.40287,-1.12416 8.24645,-4.55963 3.70358,-3.31033 5.33275,-6.50686 5.33275,-6.50686"
         id="path946-2"
         sodipodi:nodetypes="cssssc"
         inkscape:original-d="m 136.11232,-122.46654 c 0,0 1.96159,1.60702 7.54442,3.21013 2.49594,0.71671 5.54792,1.28035 9.40387,1.82375 8.52304,1.20113 15.51539,1.26966 22.53642,-0.23912 5.99198,-1.28763 4.75485,-0.86674 8.99392,-3.54977 4.12513,-2.61092 5.98712,-5.13944 5.98712,-5.13944" />
      <path
         style="fill:#e4d2c5;fill-opacity:1;stroke:#000000;stroke-width:2;stroke-linecap:butt;stroke-linejoin:miter;stroke-miterlimit:4;stroke-dasharray:none;stroke-opacity:1"
         d="m 70.52579,-70.655266 c 0,0 2.608185,-15.847596 13.323812,-19.145808 10.472593,-3.223417 28.259138,2.020527 30.018598,2.780559 2.22488,0.961078 11.23996,4.0535 20.57906,6.557948 9.15626,2.455405 9.41364,3.142517 15.82088,3.064326 3.30896,-0.0906 9.37538,-2.402225 11.28953,-5.541011 5.55671,-7.842807 1.22617,-21.849048 5.91134,-24.983228 8.62218,-4.63415 5.88906,12.54331 6.6613,15.543583 1.43437,5.572766 6.02588,4.56824 6.02588,4.56824 0,0 11.49508,-11.720991 16.36943,-10.630248 4.40344,0.985364 4.08301,3.41947 2.60931,5.777412 -3.33711,5.339408 -13.56128,10.614495 -13.56128,10.614495 0,0 19.70468,-8.974648 21.85657,-3.276155 1.87137,4.955665 -16.53303,15.012127 -16.55175,14.564876 -0.0188,-0.447215 17.82843,-7.330448 18.08004,-0.64431 0.2625,6.975573 -17.34481,8.849834 -17.97095,10.23491 0.55584,2.518622 11.4658,-1.313934 12.2424,5.837737 0.70947,6.533502 -17.25735,6.950464 -19.01701,7.647009 -2.30837,0.913744 -10.80816,0.936116 -14.98212,0.478198 -4.03969,-0.443207 -9.64445,-1.483958 -13.14941,-1.489112 -3.53285,-0.0052 -9.90696,0.892202 -16.9251,2.186835 -7.131,1.315465 -16.37758,3.544701 -21.85434,4.662668 -5.54371,1.131604 -23.00926,2.271014 -25.979991,1.80448 -4.404476,-0.691697 -11.718015,-3.295842 -16.097897,-10.715314 -6.40272,-10.846175 -4.698302,-19.89809 -4.698302,-19.89809 z"
         id="path851-1"
         sodipodi:nodetypes="csszcccscsscssscssszzzssc"
         inkscape:original-d="m 70.342642,-73.096263 c 0,0 2.22398,-10.604998 11.30742,-12.470997 9.08346,-1.86601 24.916388,2.450687 26.512648,3.057247 2.02677,0.77015 10.34228,3.35319 19.13144,5.57584 8.78916,2.22264 9.03153,2.73682 15.31142,3.00243 3.27939,0.10163 9.38555,-1.30407 11.3647,-3.54714 5.78473,-5.623857 1.55943,-16.296834 6.40903,-18.526806 9.05454,-3.306064 5.9109,9.680378 6.6686,11.984777 1.40934,4.286279 6.25965,3.730879 6.25965,3.730879 0,0 12.55437,-8.543958 17.87287,-7.518497 4.8565,0.93638 4.44979,2.82898 2.76616,4.609977 -3.78677,4.00575 -14.97238,7.57137 -14.97238,7.57137 0,0 21.79158,-6.017875 24.09165,-1.43498 2.00697,3.9989 -18.57572,10.73831 -18.58759,10.39352 -0.0119,-0.34479 19.87146,-4.63534 20.00906,0.63268 0.14337,5.4891 -19.36754,5.71586 -20.07108,6.73446 0.55384,1.97008 12.59181,-0.20497 13.30626,5.40729 0.65263,5.12662 -18.92497,3.97104 -20.80984,4.35737 -2.46043,0.5043 -11.34976,-0.16264 -15.64468,-0.83465 -4.11843,-0.64441 -9.76508,-1.84273 -13.26939,-2.11046 -3.50432,-0.26773 -9.76804,-0.087 -16.56436,0.32982 -6.79632,0.41683 -15.45376,1.31767 -20.49634,1.70031 -5.04256,0.38262 -20.522938,-0.10414 -23.095828,-0.63644 -3.78581,-0.78324 -9.99155,-3.05185 -13.64501,-8.34152 -5.29321,-7.66381 -3.85441,-13.66648 -3.85441,-13.66648 z" />
      <path
         style="fill:none;stroke:#000000;stroke-width:2;stroke-linecap:round;stroke-linejoin:miter;stroke-miterlimit:4;stroke-dasharray:none;stroke-opacity:1"
         d="m 89.378416,-194.1005 c 0,0 -4.762072,4.88323 -4.869936,11.12316 -0.108054,6.25084 1.452903,9.09269 1.452903,9.09269"
         id="path948-9"
         inkscape:original-d="m 86.935452,-158.29455 c 0,0 -4.18124,3.6359 -4.30321,8.02692 -0.12197,4.39101 1.21973,6.34257 1.21973,6.34257" />
      <path
         style="fill:none;stroke:#000000;stroke-width:2;stroke-linecap:round;stroke-linejoin:miter;stroke-miterlimit:4;stroke-dasharray:none;stroke-opacity:1"
         d="m 100.82217,-195.35088 c 8.1e-4,0.11328 -5.58512,4.99913 -5.906335,9.08572 -0.449227,5.71527 -0.655353,4.85165 1.089234,9.06201 0,0 2.352356,3.52494 5.284231,3.8918 3.11174,0.38937 8.34228,-0.36554 10.07501,-0.1304 1.7263,0.23428 5.71563,4.08321 5.72471,5.09272"
         id="path950-0"
         sodipodi:nodetypes="cssssc"
         inkscape:original-d="m 97.112682,-159.67451 c 0,0.0812 -5.02386,3.80399 -5.33249,6.72348 -0.43075,4.07474 -0.60844,3.46853 0.9148,6.40356 0,0 2.07353,2.43945 4.69595,2.62241 2.801208,0.19544 7.562298,-0.48789 9.147948,-0.36592 1.58564,0.12198 5.24482,2.80538 5.24482,3.53721" />
      <path
         style="fill:none;stroke:#000000;stroke-width:2;stroke-linecap:butt;stroke-linejoin:miter;stroke-miterlimit:4;stroke-dasharray:none;stroke-opacity:1"
         d="m 109.39286,-192.85445 c 0,0 -0.42176,4.39302 -0.66136,7.93774 -0.62327,9.2207 1.09278,13.02125 -0.60373,11.26731"
         id="path952-9"
         sodipodi:nodetypes="csc"
         inkscape:original-d="m 104.87746,-158.24638 c 0,0 -0.41875,3.19268 -0.66398,5.76051 -0.63629,6.66269 0.90272,9.35048 -0.63333,8.13391" />
      <path
         style="fill:none;stroke:#000000;stroke-width:2;stroke-linecap:round;stroke-linejoin:miter;stroke-miterlimit:4;stroke-dasharray:none;stroke-opacity:1"
         d="m 96.005069,-177.20315 c 0,0 -1.515332,1.19313 -2.867794,3.93176 -1.250929,2.53304 -0.345969,7.01294 1.641809,8.59061 1.748857,1.38804 8.311086,5.79284 8.311086,5.79284 0,0 -7.333072,-3.8905 -10.513268,-4.29798 -3.409586,-0.43685 -4.99194,1.13384 -5.772251,2.45945 l -1.671783,2.84003"
         id="path954-2"
         sodipodi:nodetypes="csscssc"
         inkscape:original-d="m 92.694992,-146.54747 c 0,0 -1.35072,0.89028 -2.56143,2.86636 -1.11599,1.82148 -0.34339,4.96346 1.40268,6.03765 1.54178,0.9485 7.37935,3.96411 7.37935,3.96411 0,0 -6.52429,-2.63725 -9.33091,-2.86636 -2.98833,-0.24394 -4.37656,0.8873 -5.06186,1.82959 l -1.46368,2.01255" />
      <path
         style="fill:none;stroke:#000000;stroke-width:2;stroke-linecap:round;stroke-linejoin:miter;stroke-miterlimit:4;stroke-dasharray:none;stroke-opacity:1"
         d="m 83.076456,-148.85275 c 0,0 4.159261,2.69634 7.792885,2.03007 3.60524,-0.66106 4.100679,-3.29536 4.100679,-3.29536 0,0 -0.06861,4.54414 2.552215,4.90973 2.606395,0.3636 7.990425,1.02736 7.990425,1.02736"
         id="path956-1"
         sodipodi:nodetypes="cscsc"
         inkscape:original-d="m 81.243102,-126.38289 c 0,0 3.58465,1.85149 6.75594,1.3636 3.17129,-0.48789 3.62345,-2.34708 3.62345,-2.34708 0,0 -0.0863,3.20089 2.23124,3.44483 2.31748,0.24395 7.145858,0.68999 7.145858,0.68999" />
      <path
         style="fill:#e00606;fill-opacity:1;stroke:#e00606;stroke-width:2;stroke-linecap:butt;stroke-linejoin:miter;stroke-miterlimit:4;stroke-dasharray:none;stroke-opacity:1"
         d="m 193.11992,-102.14594 -0.42912,-18.09565 -11.77795,11.44757 z"
         id="path1386-7"
         inkscape:transform-center-x="-8.317631"
         inkscape:transform-center-y="-7.7199666"
         inkscape:original-d="m 187.51497,-90.81185 -0.11968,-14.10149 -12.92373,8.601754 z" />
      <path
         style="fill:none;stroke:#e00606;stroke-width:5;stroke-linecap:round;stroke-linejoin:miter;stroke-miterlimit:4;stroke-dasharray:none;stroke-opacity:1"
         d="m 126.3724,-180.63249 c 0,0 28.66221,22.47271 40.45829,36.53907 11.17062,13.32053 24.3385,37.57068 24.3385,37.57068"
         id="path1508"
         sodipodi:nodetypes="csc"
         inkscape:original-d="m 120.61166,-149.98789 c 0,0 27.80326,15.99622 39.6586,26.53287 11.48629,10.20866 25.19969,29.183158 25.19969,29.183158" />
    </g>
  </g>
</svg>
