<?xml version="1.0" encoding="UTF-8" standalone="no"?>
<svg
   xmlns:dc="http://purl.org/dc/elements/1.1/"
   xmlns:cc="http://creativecommons.org/ns#"
   xmlns:rdf="http://www.w3.org/1999/02/22-rdf-syntax-ns#"
   xmlns:svg="http://www.w3.org/2000/svg"
   xmlns="http://www.w3.org/2000/svg"
   xmlns:sodipodi="http://sodipodi.sourceforge.net/DTD/sodipodi-0.dtd"
   xmlns:inkscape="http://www.inkscape.org/namespaces/inkscape"
   width="210mm"
   height="297mm"
   viewBox="0 0 210 297"
   version="1.1"
   id="svg924"
   inkscape:version="1.0.2 (e86c870879, 2021-01-15, custom)"
   sodipodi:docname="menino2.svg"
   inkscape:export-filename="C:\Users\tatim\Desktop\FATEC DSM\1ยบ Semestre\ProjetoInterdisciplinar1\Design\menino2.png"
   inkscape:export-xdpi="5.8930154"
   inkscape:export-ydpi="5.8930154">
  <defs
     id="defs918">
    <inkscape:path-effect
       effect="perspective-envelope"
       up_left_point="67.520939,-306.45391"
       up_right_point="247.1734,-275.2289"
       down_left_point="68.49672,-10.730879"
       down_right_point="253.02809,-35.125416"
       id="path-effect3903"
       is_visible="true"
       lpeversion="1"
       deform_type="perspective"
       horizontal_mirror="false"
       vertical_mirror="false"
       overflow_perspective="false" />
    <inkscape:path-effect
       effect="perspective-envelope"
       up_left_point="6.8371221,39.759076"
       up_right_point="44.649156,46.327447"
       down_left_point="6.3918088,93.490818"
       down_right_point="45.428454,89.149013"
       id="path-effect1194"
       is_visible="true"
       lpeversion="1"
       deform_type="perspective"
       horizontal_mirror="false"
       vertical_mirror="false"
       overflow_perspective="false" />
  </defs>
  <sodipodi:namedview
     id="base"
     pagecolor="#ffffff"
     bordercolor="#666666"
     borderopacity="1.0"
     inkscape:pageopacity="0.0"
     inkscape:pageshadow="2"
     inkscape:zoom="0.45263437"
     inkscape:cx="-61.42265"
     inkscape:cy="472.57835"
     inkscape:document-units="mm"
     inkscape:current-layer="layer1"
     inkscape:document-rotation="0"
     showgrid="false"
     inkscape:showpageshadow="true"
     showborder="true"
     inkscape:window-width="1366"
     inkscape:window-height="715"
     inkscape:window-x="272"
     inkscape:window-y="1072"
     inkscape:window-maximized="1" />
  <metadata
     id="metadata921">
    <rdf:RDF>
      <cc:Work
         rdf:about="">
        <dc:format>image/svg+xml</dc:format>
        <dc:type
           rdf:resource="http://purl.org/dc/dcmitype/StillImage" />
        <dc:title />
      </cc:Work>
    </rdf:RDF>
  </metadata>
  <g
     inkscape:label="Layer 1"
     inkscape:groupmode="layer"
     id="layer1">
    <rect
       style="fill:#ffffff;fill-opacity:1;stroke:#031c8b;stroke-width:6.18693;stroke-linecap:round;stroke-linejoin:round;stroke-miterlimit:4;stroke-dasharray:none;stroke-dashoffset:0;stroke-opacity:1;paint-order:stroke fill markers"
       id="rect1536-8"
       width="178.75662"
       height="227.99828"
       x="8.6726542"
       y="15.790679"
       inkscape:export-xdpi="96"
       inkscape:export-ydpi="96" />
    <path
       style="opacity:0.648387;fill:#b8b8b8;fill-opacity:1;stroke:none;stroke-width:0.327389px;stroke-linecap:butt;stroke-linejoin:miter;stroke-opacity:1"
       d="M 40.695893,238.83244 170.18757,226.20162 100.04729,244.0194 32.214142,243.78882 Z"
       id="path1871-3"
       sodipodi:nodetypes="ccccc" />
    <path
       style="fill:#c6e7ee;fill-opacity:1;stroke:#031c8b;stroke-width:6.18693;stroke-linecap:butt;stroke-linejoin:miter;stroke-miterlimit:4;stroke-dasharray:none;stroke-opacity:1"
       d="M 8.6726691,15.790674 166.60288,40.334675 V 224.19996 L 8.6726691,243.78894 V 15.790674"
       id="path1586-7" />
    <g
       id="g1192"
       inkscape:path-effect="#path-effect1194"
       transform="matrix(3.5794457,0,0,3.5794457,-4.3505462,-104.50706)">
      <ellipse
         style="opacity:0.997238;fill:#031c8b;fill-opacity:1;stroke:none;stroke-width:1.58994;stroke-linecap:round;stroke-linejoin:round;paint-order:stroke fill markers"
         id="path955-5"
         cx="42.87022"
         cy="69.388916"
         rx="1.9821236"
         ry="1.5123956" />
      <path
         style="fill:#e4d2c5;fill-opacity:1;stroke:#000000;stroke-width:0.397311;stroke-linecap:butt;stroke-linejoin:miter;stroke-miterlimit:4;stroke-dasharray:none;stroke-opacity:1"
         d="m 43.257019,84.159765 c 0,0 0.0516,1.841361 0.273392,2.731575 0.22146,0.888897 0.597287,2.402348 0.597287,2.402348 l -6.304214,0.366484 -0.602066,-6.950503 6.20313,-0.853473 z"
         id="path960-3-5"
         inkscape:original-d="m 42.822903,84.667111 c 0,0 0.02554,1.585903 0.280991,2.367363 0.255444,0.781461 0.689704,2.114539 0.689704,2.114539 l -7.535664,-0.275809 -0.587528,-5.791997 7.407941,-0.390729 z" />
      <path
         style="fill:#e4d2c5;fill-opacity:1;stroke:#000000;stroke-width:0.397311;stroke-linecap:butt;stroke-linejoin:miter;stroke-miterlimit:4;stroke-dasharray:none;stroke-opacity:1"
         d="m 32.12336,66.352335 0.651623,2.138858 -2.047789,3.542564 -6.588564,-2.758575 1.31664,-3.434811 z"
         id="path958-0-2"
         sodipodi:nodetypes="cccccc"
         inkscape:original-d="m 30.178313,69.497595 0.689704,1.746793 -2.247925,2.918982 -6.741746,-2.139156 1.326283,-2.733475 z" />
      <path
         style="fill:#4d6aec;fill-opacity:1;stroke:#031c8b;stroke-width:0.397311;stroke-linecap:butt;stroke-linejoin:miter;stroke-miterlimit:4;stroke-dasharray:none;stroke-opacity:1"
         d="m 32.774983,68.491193 8.706769,3.731254 3.854436,11.856673 -6.717683,0.519506 0.06688,4.912053 -21.575045,2.346143 0.03701,-10.422173 -8.2142659,-2.206311 1.0074533,-7.12398 4.0464336,-0.366651 10.151662,-2.462525 1.885379,0.466699 1.255214,0.207441 1.795965,0.109012 0.826049,-0.09705 c 1.131134,-0.132896 2.239845,-0.621297 2.873745,-1.47009 z"
         id="path847-7-7"
         sodipodi:nodetypes="ccccccccccccccsc"
         inkscape:original-d="m 30.868017,71.244388 10.013493,3.056888 4.546944,10.434786 h -8.174281 v 4.091173 H 15.234706 l 0.02373,-7.644587 -7.1101706,-1.85315 0.8024651,-5.074191 3.4740705,-0.275809 9.453547,-1.955284 1.879884,0.340986 1.274924,0.148942 1.858457,0.06588 0.869478,-0.08824 c 1.205024,-0.122292 2.406265,-0.537638 3.106928,-1.247396 z" />
      <path
         style="fill:none;stroke:#001988;stroke-width:0.397311;stroke-linecap:round;stroke-linejoin:miter;stroke-miterlimit:4;stroke-dasharray:none;stroke-opacity:1"
         d="m 38.618505,84.598626 -0.06421,-4.71545 -0.0445,-0.0526"
         id="path849-6-8"
         inkscape:original-d="m 37.254173,84.736062 v -3.953267 l -0.05109,-0.04597" />
      <path
         style="fill:#e4d2c5;fill-opacity:1;stroke:#000000;stroke-width:0.397311;stroke-linecap:butt;stroke-linejoin:miter;stroke-miterlimit:4;stroke-dasharray:none;stroke-opacity:1"
         d="m 9.0531873,86.42695 c 0,0 -1.8497056,0.573455 -2.192305,-1.364527 -0.3429903,-1.940177 -0.9065309,-4.479346 0.7905848,-10.173938 1.6550445,-5.55342 2.177979,-6.490138 2.177979,-6.490138 0,0 -1.6847795,-0.808711 -1.5870074,-2.255645 0.097486,-1.4427 0.7524961,-2.044969 0.7524961,-2.044969 0,0 -0.9820957,-2.390361 0.1545636,-3.801075 1.1207826,-1.391007 2.1284156,-0.08143 2.1284156,-0.08143 0,0 0.967205,-1.07685 1.628862,-0.722577 0.657157,0.351866 0.820415,0.537429 0.820415,0.537429 0,0 0.73603,-0.729906 1.220776,-0.348725 0.482379,0.379316 0.601225,1.12083 0.601593,0.948247 3.68e-4,-0.172541 -0.0915,-3.387609 1.713218,-4.317883 1.757682,-0.906031 1.01545,4.367453 1.01545,4.367453 0,0 -0.08289,0.970575 -0.58938,2.696867 -0.519245,1.769738 -0.389922,2.810007 -0.753361,3.838693 -0.439459,1.243856 -1.931035,2.173115 -2.337814,2.078339 -0.408573,-0.0952 -0.832385,3.831121 -0.794647,4.895176 0.03778,1.065125 0.757764,5.847768 0.757764,5.847768 z"
         id="path853-5-1"
         sodipodi:nodetypes="csscscscscssscsssscc"
         inkscape:original-d="m 8.2865704,84.414286 c 0,0 -1.5071123,0.302533 -1.796116,-1.062654 -0.2890058,-1.365187 -0.7586379,-3.152932 0.5780074,-7.118475 1.3366454,-3.965541 1.7701531,-4.648134 1.7701531,-4.648134 0,0 -1.4088963,-0.552577 -1.3366454,-1.592718 0.072251,-1.040142 0.614134,-1.495205 0.614134,-1.495205 0,0 -0.8308889,-1.69023 0.1083753,-2.762877 0.9392663,-1.072647 1.8062792,-0.162523 1.8062792,-0.162523 0,0 0.830887,-0.845115 1.408897,-0.617584 0.578009,0.227532 0.722511,0.357549 0.722511,0.357549 0,0 0.65026,-0.58508 1.083766,-0.325043 0.433507,0.260034 0.541883,0.81261 0.541883,0.682592 0,-0.130017 -0.08903,-2.552077 1.553398,-3.380461 1.634395,-0.824333 0.941082,3.280637 0.941082,3.280637 0,0 -0.07664,0.745969 -0.543701,2.082595 -0.474901,1.359053 -0.355744,2.141086 -0.686385,2.9254 -0.397381,0.94263 -1.734026,1.657725 -2.095281,1.592717 -0.361256,-0.06501 -0.722511,2.827888 -0.686387,3.607994 0.03613,0.780105 0.680188,4.290026 0.680188,4.290026 z" />
      <path
         style="fill:#e4d2c5;fill-opacity:1;stroke:#000000;stroke-width:0.397311;stroke-linecap:butt;stroke-linejoin:miter;stroke-miterlimit:4;stroke-dasharray:none;stroke-opacity:1"
         d="m 29.955543,68.028552 c 0.776218,-0.319527 2.480836,-1.104469 3.508907,-3.336041 1.011731,-2.196101 1.320352,-3.255831 1.320352,-3.255831 0,0 0.58388,0.923101 1.080126,0.07438 0.492515,-0.842327 0.779193,-2.907817 0.709264,-3.520018 -0.06992,-0.612164 -0.545294,-1.150657 -0.545294,-1.150657 0,0 1.033149,-1.967635 0.504456,-4.621635 -0.553845,-2.780269 -2.964193,-5.520175 -4.820706,-6.391645 -1.897973,-0.890932 -5.048382,-1.652502 -6.453362,-1.530142 -1.326692,0.115545 -3.656524,0.778121 -5.716411,3.428792 -2.118313,2.725851 -0.6472,7.34687 -0.6472,7.34687 0,0 -0.773445,0.641187 -0.657157,1.327765 0.116238,0.686315 0.61936,3.135782 0.850937,3.532863 0.231092,0.396248 1.643115,1.164065 1.832018,1.092669 0,0 0.837718,2.108169 1.6616,3.526067 0.760499,1.308816 2.059134,2.248553 2.059134,2.248553 0,0 1.821569,1.230996 2.725685,1.41571 0.894691,0.18279 1.778199,0.145502 2.587651,-0.187704 z"
         id="path857-55-1"
         sodipodi:nodetypes="sscsscsssscssssczs"
         inkscape:original-d="m 27.834458,70.925412 c 0.828952,-0.277574 2.67949,-0.965611 3.835507,-2.850869 1.156019,-1.885257 1.517274,-2.795383 1.517274,-2.795383 0,0 0.650261,0.747603 1.228268,0 0.57801,-0.747601 0.939266,-2.535346 0.867015,-3.055418 -0.07225,-0.52007 -0.614136,-0.942627 -0.614136,-0.942627 0,0 1.22827,-1.787745 0.650261,-4.030552 -0.60387,-2.343156 -3.323551,-4.3881 -5.382708,-4.875666 -2.059157,-0.487567 -5.382708,-0.682593 -6.827729,-0.390054 -1.342067,0.271699 -3.648681,1.105152 -5.635587,3.445471 -1.986908,2.34032 -0.614134,5.785792 -0.614134,5.785792 0,0 -0.722514,0.552575 -0.614134,1.072647 0.108375,0.52007 0.578009,2.372823 0.794762,2.665363 0.216753,0.29254 1.553398,0.812612 1.734027,0.747602 0,0 0.800959,1.599649 1.595721,2.672296 0.738996,0.997381 2.018337,1.698184 2.018337,1.698184 0,0 1.825342,0.930406 2.747506,1.058851 0.922167,0.128446 1.843996,0.08091 2.69975,-0.205637 z" />
      <path
         id="path857-5-5-2"
         style="fill:#723123;fill-opacity:1;stroke:#000000;stroke-width:0.397311;stroke-linecap:butt;stroke-linejoin:miter;stroke-miterlimit:4;stroke-dasharray:none;stroke-opacity:1"
         d="m 32.859311,44.279422 c 0,0 0.144615,0.7767 0.172872,1.318714 0.01451,0.278322 -0.196199,0.590498 -0.405431,0.829726 -0.34396,-0.254936 -0.591488,-0.449339 -0.914119,-0.600787 -1.30032,-0.610386 -3.18182,-1.158262 -4.696429,-1.405283 -0.697601,-0.113825 -1.31529,-0.163254 -1.756934,-0.124788 -1.326694,0.115542 -3.656455,0.778045 -5.716338,3.428716 -2.118312,2.725849 -0.647249,7.346959 -0.647249,7.346959 0,0 0.842073,-0.710678 1.412923,0.347898 l 0.567946,1.053161 -0.341146,-1.197621 c 0,0 0.453514,0.833775 0.452901,0.459823 -6.12e-4,-0.373757 -0.117061,-2.66615 0.628638,-3.818881 0.73806,-1.140925 0.921342,-1.444717 0.921342,-1.444717 0,0 0.223445,1.04904 0.29721,1.180527 0.07371,0.131393 0.347356,-1.252941 2.092128,-2.002891 l 1.062613,-0.45674 c 0,0 -0.969881,1.213116 -0.896824,1.584674 0.07303,0.371434 0.474026,0.43541 0.694612,0.349214 0.69076,-0.269924 1.744874,-1.048679 1.744874,-1.048679 0,0 0.492719,1.409886 0.908057,1.817362 0.413499,0.405667 -0.211315,-0.77694 0.777173,-1.082221 0.976234,-0.301497 1.637237,-0.175082 2.245419,0.215667 0.678375,0.435848 1.996266,2.17587 2.292622,2.785524 0.295531,0.607953 0.798557,2.727591 0.710218,3.408429 -0.05823,0.448771 -0.03984,0.538245 -0.07475,0.622328 0.139978,-0.268559 0.818289,-1.459103 1.637281,-1.005172 0,0 1.03311,-1.96763 0.504418,-4.621629 -0.254657,-1.278356 -0.897037,-2.540321 -1.695965,-3.617951 0.394397,-0.03737 0.845218,-0.100926 1.017329,-0.206882 0.327587,-0.201673 0.433652,-1.386436 0.413333,-1.257817 -0.02032,0.128678 -0.387901,0.482197 -0.730073,0.625992 -0.364167,0.153034 -0.438267,0.06021 -1.371967,0.200725 -1.720953,0.03987 0.03741,-0.240281 3.86e-4,-0.281109 0.321066,-0.085 0.940989,-0.527755 1.030163,-0.676585 0.152345,-0.254273 0.35322,-1.04261 0.35322,-1.04261 0,0 -0.607014,0.194802 -0.872777,0.413941 -0.266146,0.219452 -0.826801,0.414247 -0.826801,0.414247 0,0 0.07199,-0.657354 -0.03658,-1.316998 -0.108614,-0.659884 -0.954299,-1.19427 -0.954299,-1.19427 z"
         sodipodi:nodetypes="cscssssccccsscsscsscsssssccscsssccscscsc"
         inkscape:original-d="m 31.225645,50.891911 c 0,0 0.153229,0.643603 0.178773,1.103284 0.01311,0.235961 -0.226098,0.531968 -0.462122,0.764704 -0.379611,-0.169909 -0.651762,-0.301063 -1.006374,-0.385029 -1.415671,-0.335202 -3.428902,-0.53211 -5.018523,-0.527396 -0.722556,0.0021 -1.357637,0.04598 -1.809206,0.137401 -1.342069,0.271697 -3.648612,1.105082 -5.635516,3.445402 -1.986908,2.34032 -0.61418,5.785867 -0.61418,5.785867 0,0 0.794702,-0.617584 1.336585,0.162523 l 0.541885,0.780089 -0.325109,-0.910186 c 0,0 0.433549,0.617586 0.433549,0.325045 0,-0.29254 -0.108438,-2.080273 0.614073,-3.055406 0.72251,-0.975135 0.90314,-1.235134 0.90314,-1.235134 0,0 0.21682,0.812575 0.289071,0.910089 0.07225,0.09751 0.346768,-1.033569 2.095246,-1.820177 l 1.08377,-0.487568 c 0,0 -0.99336,1.088854 -0.921109,1.381394 0.07225,0.292541 0.479094,0.303606 0.704333,0.211309 0.709384,-0.290688 1.806282,-1.040185 1.806282,-1.040185 0,0 0.505783,1.105215 0.939289,1.397755 0.433508,0.292538 -0.216795,-0.617588 0.830847,-0.975137 1.047642,-0.357549 1.761386,-0.325396 2.420462,-0.06505 0.740574,0.29254 2.185593,1.625228 2.510723,2.112796 0.32513,0.487566 0.867039,2.242755 0.758661,2.827835 -0.07131,0.384965 -0.05166,0.459326 -0.0921,0.533238 0.161406,-0.238457 0.947088,-1.306781 1.88031,-0.988282 0,0 1.228226,-1.787737 0.650217,-4.030543 -0.277865,-1.078179 -1.004139,-2.092772 -1.907474,-2.922001 0.45256,-0.08298 0.972976,-0.196407 1.173599,-0.310731 0.383169,-0.218349 0.523704,-1.264167 0.49816,-1.149247 -0.02554,0.11492 -0.457858,0.472703 -0.855737,0.643568 -0.421453,0.180985 -0.505321,0.110636 -1.572528,0.354758 -1.931417,0.256351 0.04541,-0.211245 0.0039,-0.241418 0.366074,-0.115701 1.080956,-0.581387 1.185428,-0.722384 0.178812,-0.241335 0.421423,-0.953917 0.421423,-0.953917 0,0 -0.701755,0.255822 -1.008945,0.482756 -0.306491,0.226416 -0.945208,0.47111 -0.945208,0.47111 0,0 0.08941,-0.574551 -0.02554,-1.126169 -0.114949,-0.551619 -1.060067,-0.884965 -1.060067,-0.884965 z" />
      <path
         style="fill:#fcfbfb;fill-opacity:1;stroke:#000000;stroke-width:0.381562;stroke-linecap:butt;stroke-linejoin:miter;stroke-miterlimit:4;stroke-dasharray:none;stroke-opacity:1"
         d="m 23.059972,56.157132 c 0.01167,-0.621577 0.367302,-1.715508 1.181212,-1.726678 0.923717,-0.01267 1.34289,0.731072 1.443198,1.48161 0.100297,0.750451 0.0024,1.362096 -0.403262,1.819196 -0.621704,0.700536 -1.507605,0.161251 -1.756445,-0.138569 -0.249463,-0.300563 -0.476374,-0.813351 -0.464703,-1.435568 z"
         id="path886-3-8"
         sodipodi:nodetypes="zszssz"
         inkscape:original-d="m 20.859399,61.749455 c 0.01338,-0.493286 0.367981,-1.390602 1.177539,-1.467857 0.928302,-0.08858 1.349262,0.47457 1.447391,1.070544 0.09813,0.595971 -0.0043,1.094713 -0.417045,1.489929 -0.628128,0.601502 -1.508721,0.231768 -1.754042,0.01103 -0.245321,-0.220731 -0.467209,-0.610366 -0.453843,-1.103653 z" />
      <path
         style="fill:#fcfbfb;fill-opacity:1;stroke:#000000;stroke-width:0.358437;stroke-linecap:butt;stroke-linejoin:miter;stroke-miterlimit:4;stroke-dasharray:none;stroke-opacity:1"
         d="m 29.588965,56.935095 c 0.0073,-0.570611 0.307221,-1.577514 1.005005,-1.593981 0.792808,-0.0187 1.156054,0.661945 1.245418,1.351303 0.08937,0.68931 0.0078,1.25221 -0.338736,1.674707 -0.530728,0.647029 -1.29281,0.156617 -1.507365,-0.117265 -0.215032,-0.274364 -0.411613,-0.743621 -0.404322,-1.314764 z"
         id="path886-1-2-7"
         sodipodi:nodetypes="zszssz"
         inkscape:original-d="m 27.536072,61.880094 c 0.01238,-0.470283 0.340615,-1.32575 1.089965,-1.399404 0.859263,-0.08445 1.248914,0.45244 1.339744,1.020619 0.09084,0.568179 -0.004,1.043661 -0.386026,1.420446 -0.581416,0.573451 -1.396517,0.22096 -1.623593,0.01047 -0.227076,-0.210386 -0.432463,-0.58185 -0.42009,-1.052131 z" />
      <ellipse
         style="fill:#000000;fill-opacity:1;stroke:#000000;stroke-width:0.410669;stroke-linecap:round;stroke-linejoin:round;stroke-miterlimit:4;stroke-dasharray:none;stroke-opacity:1;paint-order:stroke fill markers"
         id="path908-5-1"
         cx="22.597612"
         cy="61.614185"
         rx="0.41444507"
         ry="0.5108071" />
      <ellipse
         style="fill:#000000;fill-opacity:1;stroke:#000000;stroke-width:0.389103;stroke-linecap:round;stroke-linejoin:round;stroke-miterlimit:4;stroke-dasharray:none;stroke-opacity:1;paint-order:stroke fill markers"
         id="path908-1-5-4"
         cx="29.149778"
         cy="61.761013"
         rx="0.37411213"
         ry="0.50800699" />
      <path
         style="fill:none;stroke:#000000;stroke-width:0.397311;stroke-linecap:butt;stroke-linejoin:miter;stroke-miterlimit:4;stroke-dasharray:none;stroke-opacity:1"
         d="m 29.314296,54.360212 c 0,0 0.8748,-0.570728 1.545563,-0.455725 0.665371,0.114072 1.367424,1.200108 1.367424,1.200108"
         id="path932-2-4"
         sodipodi:nodetypes="csc"
         inkscape:original-d="m 27.264665,59.782209 c 0,0 0.939266,-0.552577 1.661777,-0.520071 0.72251,0.0325 1.481148,0.87762 1.481148,0.87762" />
      <path
         style="fill:none;stroke:#000000;stroke-width:0.397311;stroke-linecap:butt;stroke-linejoin:miter;stroke-miterlimit:4;stroke-dasharray:none;stroke-opacity:1"
         d="m 22.511052,53.991105 c 0,0 0.731135,-1.024748 1.531347,-0.974562 0.792754,0.04973 1.545333,0.659063 1.545333,0.659063"
         id="path934-7-5"
         sodipodi:nodetypes="csc"
         inkscape:original-d="m 20.326542,60.078451 c 0,0 0.722511,-0.877621 1.517274,-0.910126 0.794762,-0.0325 1.553398,0.390054 1.553398,0.390054" />
      <path
         style="fill:none;stroke:#000000;stroke-width:0.397311;stroke-linecap:round;stroke-linejoin:miter;stroke-miterlimit:4;stroke-dasharray:none;stroke-opacity:1"
         d="m 19.356946,56.29219 c 0,0 0.725644,0.610294 0.840356,1.289527 0.11467,0.678979 0.0018,1.63352 0.0018,1.63352"
         id="path936-4-9"
         inkscape:original-d="m 17.291994,62.12623 c 0,0 0.686387,0.422558 0.794763,0.942629 0.108377,0.52007 0,1.267673 0,1.267673" />
      <path
         style="fill:none;stroke:#000000;stroke-width:0.397311;stroke-linecap:round;stroke-linejoin:miter;stroke-miterlimit:4;stroke-dasharray:none;stroke-opacity:1"
         d="m 35.695182,57.834602 c 0,0 -0.657546,0.589752 -0.744789,1.309879 -0.08743,0.721716 0.07939,1.387112 0.07939,1.387112"
         id="path938-4-9"
         inkscape:original-d="m 34.271005,62.158734 c 0,0 -0.758636,0.552577 -0.867013,1.17016 -0.108375,0.617584 0.07225,1.170159 0.07225,1.170159" />
      <path
         style="fill:none;stroke:#000000;stroke-width:0.397311;stroke-linecap:round;stroke-linejoin:miter;stroke-miterlimit:4;stroke-dasharray:none;stroke-opacity:1"
         d="m 26.468239,59.48845 c 0,0 0.464333,1.084474 1.199183,1.015931 0.824955,-0.07695 1.101819,-0.878582 1.101819,-0.878582"
         id="path940-4-8"
         sodipodi:nodetypes="csc"
         inkscape:original-d="m 24.264227,64.17401 c 0,0 0.469632,0.845115 1.22827,0.747601 0.859788,-0.110514 1.156017,-0.780107 1.156017,-0.780107" />
      <path
         style="fill:none;stroke:#000000;stroke-width:0.397311;stroke-linecap:round;stroke-linejoin:miter;stroke-miterlimit:4;stroke-dasharray:none;stroke-opacity:1"
         d="m 25.524845,62.899549 c 0,0 0.578326,0.565263 1.622008,0.778547 0.967146,0.197643 2.056334,0.06738 2.507855,-0.08255 0.944861,-0.313748 0.958379,-0.58262 0.958379,-0.58262"
         id="path944-0-2"
         sodipodi:nodetypes="cssc"
         inkscape:original-d="m 23.288707,66.953279 c 0,0 0.582198,0.425113 1.646732,0.551637 0.998116,0.11863 2.138557,-0.03281 2.61659,-0.17437 1.009228,-0.298864 1.026102,-0.520073 1.026102,-0.520073" />
      <path
         style="fill:none;stroke:#031c8b;stroke-width:0.397311;stroke-linecap:butt;stroke-linejoin:miter;stroke-miterlimit:4;stroke-dasharray:none;stroke-opacity:1"
         d="m 22.556656,69.631162 c 0,0 0.42409,0.397137 1.618282,0.800871 0.528764,0.178764 1.170726,0.320934 1.974887,0.458807 1.751272,0.300256 3.160113,0.327219 4.548055,-0.01261 1.165728,-0.285417 0.926763,-0.19104 1.739844,-0.798057 0.782797,-0.584409 1.130286,-1.153423 1.130286,-1.153423"
         id="path946-2-2"
         sodipodi:nodetypes="cssssc"
         inkscape:original-d="m 20.329824,72.323007 c 0,0 0.410814,0.302821 1.58002,0.604906 0.522723,0.135054 1.161896,0.241264 1.969444,0.343661 1.784972,0.226336 3.249374,0.23925 4.719781,-0.04506 1.254895,-0.242637 0.995804,-0.163326 1.883589,-0.668907 0.863922,-0.491992 1.253876,-0.968458 1.253876,-0.968458" />
      <path
         style="fill:#e4d2c5;fill-opacity:1;stroke:#000000;stroke-width:0.397311;stroke-linecap:butt;stroke-linejoin:miter;stroke-miterlimit:4;stroke-dasharray:none;stroke-opacity:1"
         d="m 6.9615501,82.581221 c 0,0 0.5960834,-2.879013 2.9049303,-3.461505 2.2513046,-0.567979 6.0405416,0.411214 6.4141196,0.551573 0.472207,0.177416 2.385067,0.750462 4.364432,1.216668 1.936948,0.456212 1.990079,0.580609 3.346921,0.57516 0.700116,-0.01187 1.986706,-0.420289 2.397143,-0.983179 1.187886,-1.404109 0.302492,-3.933606 1.29674,-4.488985 1.824798,-0.816721 1.215701,2.267735 1.372352,2.808795 0.290922,1.004828 1.258771,0.831182 1.258771,0.831182 0,0 2.436726,-2.087147 3.456403,-1.882848 0.920295,0.184386 0.848555,0.620516 0.535469,1.041159 -0.709376,0.953067 -2.864677,1.88551 -2.864677,1.88551 0,0 4.14727,-1.581473 4.586416,-0.556305 0.38178,0.89125 -3.491645,2.672293 -3.494709,2.591912 -0.0031,-0.08037 3.747867,-1.292888 3.787777,-0.0936 0.04164,1.251307 -3.649403,1.568788 -3.783468,1.81702 0.111755,0.453162 2.405671,-0.223955 2.554568,1.060453 0.136023,1.173366 -3.632403,1.233899 -4.003524,1.357785 -0.487057,0.16259 -2.275975,0.160075 -3.154685,0.07437 -0.851166,-0.08303 -2.032415,-0.275133 -2.77311,-0.278898 -0.747135,-0.0038 -2.098399,0.153105 -3.588939,0.3815 -1.516794,0.23243 -3.488117,0.629114 -4.657156,0.827776 -1.184724,0.201323 -4.9212,0.396622 -5.556687,0.309946 -0.942909,-0.128598 -2.5073039,-0.607132 -3.4323832,-1.96023 -1.3536219,-1.979926 -0.9667037,-3.62526 -0.9667037,-3.62526 z"
         id="path851-1-3"
         sodipodi:nodetypes="csszcccscsscssscssszzzssc"
         inkscape:original-d="m 6.5557418,81.626171 c 0,0 0.465766,-1.998369 2.3681023,-2.349991 1.9023409,-0.351625 5.2182159,0.461799 5.5525189,0.576097 0.424465,0.145124 2.165974,0.631863 4.00668,1.050692 1.840705,0.418826 1.891464,0.515717 3.206656,0.565767 0.686799,0.01915 1.965607,-0.245734 2.380098,-0.66841 1.211491,-1.059741 0.32659,-3.07092 1.342237,-3.491128 1.896284,-0.622983 1.237915,1.824137 1.396599,2.25837 0.295157,0.807692 1.310953,0.703034 1.310953,0.703034 0,0 2.62925,-1.609994 3.743098,-1.416759 1.017092,0.176448 0.931915,0.533083 0.579314,0.868688 -0.793059,0.754829 -3.135651,1.426723 -3.135651,1.426723 0,0 4.56379,-1.133988 5.045491,-0.270403 0.420318,0.753539 -3.890295,2.02349 -3.892781,1.958519 -0.0025,-0.06497 4.161661,-0.873468 4.190479,0.11922 0.03003,1.034347 -4.056126,1.077077 -4.203468,1.269018 0.11599,0.371235 2.637091,-0.03862 2.786718,1.018931 0.136679,0.966043 -3.963439,0.74829 -4.358186,0.821088 -0.515285,0.09503 -2.376969,-0.03065 -3.27645,-0.157278 -0.862519,-0.121431 -2.045092,-0.347238 -2.778996,-0.397688 -0.733906,-0.05045 -2.045711,-0.01639 -3.469058,0.06215 -1.423347,0.07855 -3.236467,0.248297 -4.29253,0.320401 -1.056058,0.0721 -4.298099,-0.01962 -4.836937,-0.119929 C 9.4277702,85.625692 8.1281079,85.198203 7.3629673,84.201436 6.2544153,82.757294 6.5557418,81.626171 6.5557418,81.626171 Z" />
      <path
         style="fill:none;stroke:#000000;stroke-width:0.397311;stroke-linecap:round;stroke-linejoin:miter;stroke-miterlimit:4;stroke-dasharray:none;stroke-opacity:1"
         d="m 11.277914,60.215225 c 0,0 -1.03046,0.867967 -1.067151,1.99872 -0.03676,1.132896 0.291549,1.653176 0.291549,1.653176"
         id="path948-9-6"
         inkscape:original-d="m 10.030758,65.5717 c 0,0 -0.8756728,0.685137 -0.9012168,1.512565 -0.025544,0.827427 0.2554469,1.195172 0.2554469,1.195172" />
      <path
         style="fill:none;stroke:#000000;stroke-width:0.397311;stroke-linecap:round;stroke-linejoin:miter;stroke-miterlimit:4;stroke-dasharray:none;stroke-opacity:1"
         d="m 13.727191,60.030077 c -6.9e-5,0.0205 -1.204064,0.884896 -1.281533,1.623714 -0.10836,1.03345 -0.150584,0.876355 0.213396,1.644604 0,0 0.495234,0.645869 1.120782,0.721648 0.663508,0.08038 1.780823,-0.03951 2.149657,0.0085 0.367336,0.04784 1.20876,0.756066 1.208572,0.938527"
         id="path950-0-6"
         sodipodi:nodetypes="cssssc"
         inkscape:original-d="m 12.162166,65.311665 c 0,0.0153 -1.052142,0.716811 -1.116778,1.26695 -0.09021,0.76783 -0.127425,0.653597 0.191585,1.206664 0,0 0.434258,0.459682 0.983469,0.494158 0.586654,0.03683 1.583765,-0.09194 1.915846,-0.06895 0.332079,0.02298 1.098418,0.528636 1.098418,0.666539" />
      <path
         style="fill:none;stroke:#000000;stroke-width:0.397311;stroke-linecap:butt;stroke-linejoin:miter;stroke-miterlimit:4;stroke-dasharray:none;stroke-opacity:1"
         d="m 15.550389,60.512272 c 0,0 -0.09921,0.792724 -0.157807,1.432815 -0.152453,1.665396 0.205385,2.358216 -0.152628,2.035619"
         id="path952-9-2"
         sodipodi:nodetypes="csc"
         inkscape:original-d="m 13.788336,65.580777 c 0,0 -0.0877,0.601618 -0.139056,1.085491 -0.133258,1.255494 0.189055,1.761972 -0.132638,1.532726" />
      <path
         style="fill:none;stroke:#000000;stroke-width:0.397311;stroke-linecap:round;stroke-linejoin:miter;stroke-miterlimit:4;stroke-dasharray:none;stroke-opacity:1"
         d="m 12.659054,63.298395 c 0,0 -0.326587,0.211143 -0.621774,0.702853 -0.273117,0.454945 -0.08915,1.269453 0.332679,1.561336 0.370987,0.256704 1.763631,1.073707 1.763631,1.073707 0,0 -1.55857,-0.726157 -2.237961,-0.809518 -0.728895,-0.08944 -1.071192,0.190559 -1.241232,0.428585 l -0.364412,0.510108"
         id="path954-2-3"
         sodipodi:nodetypes="csscssc"
         inkscape:original-d="m 11.236973,67.785279 c 0,0 -0.28288,0.167762 -0.536437,0.540127 -0.233721,0.343234 -0.07192,0.935298 0.293762,1.137714 0.322893,0.178732 1.54545,0.746983 1.54545,0.746983 0,0 -1.366376,-0.496954 -1.954164,-0.540127 -0.625843,-0.04597 -0.9165787,0.1672 -1.0601004,0.344762 l -0.3065372,0.379238" />
      <path
         style="fill:none;stroke:#000000;stroke-width:0.397311;stroke-linecap:round;stroke-linejoin:miter;stroke-miterlimit:4;stroke-dasharray:none;stroke-opacity:1"
         d="m 9.8294461,68.398347 c 0,0 0.8856709,0.500383 1.6653519,0.389337 0.772991,-0.110097 0.884647,-0.586104 0.884647,-0.586104 0,0 -0.02446,0.823259 0.535233,0.896483 0.556312,0.07279 1.704719,0.207201 1.704719,0.207201"
         id="path956-1-5"
         sodipodi:nodetypes="cscsc"
         inkscape:original-d="m 8.8386149,71.585023 c 0,0 0.7507299,0.348889 1.4148901,0.256952 0.66416,-0.09194 0.758856,-0.442275 0.758856,-0.442275 0,0 -0.01807,0.603164 0.467286,0.649132 0.485348,0.04597 1.496551,0.130019 1.496551,0.130019" />
      <path
         style="fill:#e00606;fill-opacity:1;stroke:#e00606;stroke-width:0.397311;stroke-linecap:butt;stroke-linejoin:miter;stroke-miterlimit:4;stroke-dasharray:none;stroke-opacity:1"
         d="m 33.066706,77.077031 -0.05501,-3.24887 -2.494551,2.031938 z"
         id="path1386-7-4"
         inkscape:transform-center-x="-8.317631"
         inkscape:transform-center-y="-7.7199666"
         inkscape:original-d="m 31.095032,78.287907 -0.02506,-2.657236 -2.706605,1.620885 z" />
      <path
         style="fill:none;stroke:#e00606;stroke-width:0.993279;stroke-linecap:round;stroke-linejoin:miter;stroke-miterlimit:4;stroke-dasharray:none;stroke-opacity:1"
         d="m 19.13782,62.778321 c 0,0 6.025074,4.139703 8.485433,6.703224 2.324943,2.42243 5.042855,6.806123 5.042855,6.806123"
         id="path1508-4"
         sodipodi:nodetypes="csc"
         inkscape:original-d="m 17.083535,67.136978 c 0,0 5.822811,3.014273 8.305663,4.999763 2.405563,1.923685 5.277548,5.499174 5.277548,5.499174" />
      <ellipse
         style="opacity:0.6;fill:#ffffff;stroke-width:3.21429;stroke-linecap:round;stroke-linejoin:round;paint-order:stroke fill markers"
         id="path978"
         cx="22.843151"
         cy="61.353191"
         rx="0.15181911"
         ry="0.26568344" />
      <ellipse
         style="opacity:0.6;fill:#ffffff;stroke-width:2.64896;stroke-linecap:round;stroke-linejoin:round;paint-order:stroke fill markers"
         id="path978-7"
         cx="29.394899"
         cy="61.5131"
         rx="0.11566287"
         ry="0.2368505" />
    </g>
  </g>
</svg>
