<?xml version="1.0" encoding="UTF-8" standalone="no"?>
<svg
   xmlns:dc="http://purl.org/dc/elements/1.1/"
   xmlns:cc="http://creativecommons.org/ns#"
   xmlns:rdf="http://www.w3.org/1999/02/22-rdf-syntax-ns#"
   xmlns:svg="http://www.w3.org/2000/svg"
   xmlns="http://www.w3.org/2000/svg"
   xmlns:sodipodi="http://sodipodi.sourceforge.net/DTD/sodipodi-0.dtd"
   xmlns:inkscape="http://www.inkscape.org/namespaces/inkscape"
   width="210mm"
   height="297mm"
   viewBox="0 0 210 297"
   version="1.1"
   id="svg2266"
   inkscape:version="1.0.2 (e86c870879, 2021-01-15, custom)"
   sodipodi:docname="menino1.svg">
  <defs
     id="defs2260" />
  <sodipodi:namedview
     id="base"
     pagecolor="#ffffff"
     bordercolor="#666666"
     borderopacity="1.0"
     inkscape:pageopacity="0.0"
     inkscape:pageshadow="2"
     inkscape:zoom="0.50237643"
     inkscape:cx="400"
     inkscape:cy="560"
     inkscape:document-units="mm"
     inkscape:current-layer="layer1"
     inkscape:document-rotation="0"
     showgrid="false"
     inkscape:showpageshadow="false"
     showborder="false"
     inkscape:window-width="1512"
     inkscape:window-height="967"
     inkscape:window-x="280"
     inkscape:window-y="1080"
     inkscape:window-maximized="0" />
  <metadata
     id="metadata2263">
    <rdf:RDF>
      <cc:Work
         rdf:about="">
        <dc:format>image/svg+xml</dc:format>
        <dc:type
           rdf:resource="http://purl.org/dc/dcmitype/StillImage" />
        <dc:title></dc:title>
      </cc:Work>
    </rdf:RDF>
  </metadata>
  <g
     inkscape:label="Layer 1"
     inkscape:groupmode="layer"
     id="layer1">
    <path
       style="fill:#e4d2c5;fill-opacity:1;stroke:#000000;stroke-width:2;stroke-linecap:butt;stroke-linejoin:miter;stroke-miterlimit:4;stroke-dasharray:none;stroke-opacity:1"
       d="m 197.88782,231.13252 c 0,0 0.12197,8.41611 1.3417,12.56318 1.21972,4.14708 3.29326,11.22149 3.29326,11.22149 l -35.98194,-1.46367 -2.80538,-30.73712 35.37208,-2.07353 z"
       id="path960" />
    <path
       style="fill:#e4d2c5;fill-opacity:1;stroke:#000000;stroke-width:2;stroke-linecap:butt;stroke-linejoin:miter;stroke-miterlimit:4;stroke-dasharray:none;stroke-opacity:1"
       d="m 137.51134,150.63054 3.29326,9.26993 -10.73359,15.49053 -17.07618,-10.48965 11.46543,-15.36856 z"
       id="path958" />
    <path
       style="fill:#4d6aec;fill-opacity:1;stroke:#031c8b;stroke-width:2;stroke-linecap:butt;stroke-linejoin:miter;stroke-miterlimit:4;stroke-dasharray:none;stroke-opacity:1"
       d="m 140.8046,159.90047 47.81329,16.22237 21.71114,55.37559 h -39.03126 v 21.71114 H 66.157317 l 0.97579,-47.81329 -34.64025,-7.07442 3.65918,-22.44297 16.58829,-1.46367 34.15235,-11.46543 41.836623,5.12285 c 4.62933,-2.1619 8.72971,-4.40561 12.0753,-8.17217 z"
       id="path847"
       sodipodi:nodetypes="ccccccccccccc" />
    <rect
       style="fill:none;fill-opacity:1;stroke:#031b8a;stroke-width:3.87846;stroke-linecap:round;stroke-linejoin:round;stroke-miterlimit:4;stroke-dasharray:none;stroke-opacity:0.909804;paint-order:stroke fill markers"
       id="rect1510"
       width="208.63278"
       height="217.85742"
       x="10.496258"
       y="38.010414" />
    <path
       style="fill:none;stroke:#001988;stroke-width:2;stroke-linecap:round;stroke-linejoin:miter;stroke-miterlimit:4;stroke-dasharray:none;stroke-opacity:1"
       d="m 171.29777,231.49843 v -20.9793 l -0.24394,-0.24394"
       id="path849" />
    <path
       style="fill:#e4d2c5;fill-opacity:1;stroke:#000000;stroke-width:2;stroke-linecap:butt;stroke-linejoin:miter;stroke-miterlimit:4;stroke-dasharray:none;stroke-opacity:1"
       d="m 32.980757,229.79082 c 0,0 -7.19629,1.60549 -8.57625,-5.63932 -1.37996,-7.24481 -3.62241,-16.73206 2.75992,-37.7765 6.38234,-21.04444 8.45228,-24.66684 8.45228,-24.66684 0,0 -6.72732,-2.93243 -6.38233,-8.45228 0.34499,-5.51985 2.93242,-7.93479 2.93242,-7.93479 0,0 -3.96739,-8.96976 0.51749,-14.66211 4.48488,-5.69235 8.62477,-0.86248 8.62477,-0.86248 0,0 3.96739,-4.48488 6.72732,-3.27741 2.75993,1.20747 3.44991,1.89745 3.44991,1.89745 0,0 3.10492,-3.10492 5.17486,-1.72495 2.06995,1.37996 2.58743,4.31238 2.58743,3.6224 0,-0.68998 -0.42511,-13.54343 7.41731,-17.93952 7.80404,-4.37459 4.49355,17.40977 4.49355,17.40977 0,0 -0.36592,3.95873 -2.5961,11.05197 -2.26761,7.21226 -1.69864,11.36237 -3.27742,15.52459 -1.89745,5.00237 -8.27978,8.79727 -10.00473,8.45227 -1.72496,-0.34499 -3.44991,15.0071 -3.27741,19.147 0.17249,4.13989 2.75992,12.76466 2.75992,12.76466 z"
       id="path853"
       sodipodi:nodetypes="csscscscscssscsssscc" />
    <path
       style="fill:#e4d2c5;fill-opacity:1;stroke:#000000;stroke-width:2;stroke-linecap:butt;stroke-linejoin:miter;stroke-miterlimit:4;stroke-dasharray:none;stroke-opacity:1"
       d="m 125.83181,158.08575 c 0,0 13.28215,-5.00236 18.802,-15.0071 5.51986,-10.00473 7.24481,-14.83461 7.24481,-14.83461 0,0 3.10492,3.9674 5.86485,0 2.75992,-3.96739 4.48488,-13.45464 4.13989,-16.21457 -0.345,-2.75992 -2.93243,-5.00236 -2.93243,-5.00236 0,0 5.86485,-9.48725 3.10492,-21.389435 -2.88341,-12.434729 -15.86958,-23.286884 -25.70182,-25.874313 -9.83224,-2.587432 -25.70181,-3.622403 -32.60163,-2.069944 -6.408223,1.441851 -17.422043,5.864841 -26.909283,18.284513 -9.48725,12.419671 -2.93243,30.704189 -2.93243,30.704189 0,0 -3.4499,2.93242 -2.93242,5.69235 0.51749,2.75992 2.75993,12.59216 3.7949,14.14462 1.03497,1.55246 7.4173,4.31239 8.27978,3.96739 0,0 3.8245,8.48906 7.6194,14.18141 3.52862,5.29293 9.637323,9.01197 9.637323,9.01197 z"
       id="path857"
       sodipodi:nodetypes="cscsscsssscsssscc" />
    <path
       id="path857-5"
       style="fill:#723123;fill-opacity:1;stroke:#000000;stroke-width:2;stroke-linecap:butt;stroke-linejoin:miter;stroke-miterlimit:4;stroke-dasharray:none;stroke-opacity:1"
       d="m 142.51223,51.893415 c 0,0 0.73165,3.415488 0.85362,5.854941 0.0626,1.252199 -1.07959,2.823062 -2.20658,4.05815 -1.8126,-0.901682 -3.11209,-1.597697 -4.80532,-2.043287 -6.75967,-1.778855 -16.37262,-2.823811 -23.96288,-2.798794 -3.45012,0.01138 -6.48256,0.244012 -8.63875,0.729154 -6.408223,1.44185 -17.421703,5.864484 -26.908953,18.284156 -9.48725,12.419669 -2.93264,30.704585 -2.93264,30.704585 0,0 3.79461,-3.27741 6.38204,0.86248 l 2.58744,4.1398 -1.55236,-4.8302 c 0,0 2.07016,3.27742 2.07016,1.72496 0,-1.55246 -0.51779,-11.039651 2.93212,-16.214513 3.44991,-5.174863 4.3124,-6.554638 4.3124,-6.554638 0,0 1.03528,4.312193 1.38027,4.829679 0.34499,0.517487 1.65578,-5.484969 10.004563,-9.659359 l 5.17488,-2.58744 c 0,0 -4.74318,5.778361 -4.39818,7.33082 0.34499,1.552459 2.28761,1.611185 3.3631,1.121379 3.38723,-1.542632 8.62479,-5.520076 8.62479,-5.520076 0,0 2.41506,5.865175 4.485,7.417634 2.06995,1.552458 -1.03517,-3.277428 3.9672,-5.174878 5.00237,-1.897449 8.41042,-1.726818 11.55744,-0.345198 3.53615,1.552459 10.43595,8.624804 11.98841,11.212235 1.55246,2.587431 4.14001,11.901915 3.62252,15.006835 -0.34049,2.04294 -0.24668,2.43756 -0.43977,2.8298 0.7707,-1.26545 4.52224,-6.93486 8.97827,-5.24464 0,0 5.86464,-9.487206 3.10472,-21.38939 -1.32678,-5.721714 -4.79466,-11.105977 -9.10798,-15.506548 2.16092,-0.440378 4.64585,-1.042297 5.6038,-1.648994 1.82959,-1.15874 2.50063,-6.708717 2.37866,-6.098852 -0.12197,0.609861 -2.18622,2.508551 -4.08605,3.415294 -2.01239,0.960461 -2.41285,0.587134 -7.50864,1.882645 -9.2223,1.360409 0.21682,-1.121044 0.0187,-1.281165 1.74796,-0.614008 5.16144,-3.085314 5.66028,-3.833569 0.85381,-1.280713 2.01225,-5.06227 2.01225,-5.06227 0,0 -3.3508,1.357603 -4.8176,2.561902 -1.46346,1.20155 -4.51326,2.500098 -4.51326,2.500098 0,0 0.42692,-3.049037 -0.12196,-5.976382 -0.54887,-2.927344 -5.0617,-4.696354 -5.0617,-4.696354 z"
       sodipodi:nodetypes="cscssssccccsscsscsscsssssccscsssccscscsc" />
    <path
       style="fill:#fcfbfb;fill-opacity:1;stroke:#000000;stroke-width:2;stroke-linecap:butt;stroke-linejoin:miter;stroke-miterlimit:4;stroke-dasharray:none;stroke-opacity:1"
       d="m 93.052297,109.15983 c 0.0665,-2.72583 1.82959,-7.68427 5.85469,-8.11118 4.615493,-0.48952 6.708493,2.62241 7.196383,5.91568 0.48789,3.29326 -0.0216,6.04924 -2.07353,8.23315 -3.12304,3.32382 -7.501323,1.28072 -8.721053,0.061 -1.21972,-1.21973 -2.32295,-3.3728 -2.25649,-6.09864 z"
       id="path886"
       sodipodi:nodetypes="zszssz" />
    <path
       style="fill:#fcfbfb;fill-opacity:1;stroke:#000000;stroke-width:2;stroke-linecap:butt;stroke-linejoin:miter;stroke-miterlimit:4;stroke-dasharray:none;stroke-opacity:1"
       d="m 124.62305,109.13612 c 0.0665,-2.72584 1.82959,-7.68428 5.85469,-8.11119 4.61549,-0.48952 6.70849,2.62242 7.19638,5.91568 0.48789,3.29326 -0.0215,6.04924 -2.07353,8.23315 -3.12304,3.32383 -7.50132,1.28072 -8.72105,0.061 -1.21972,-1.21973 -2.32295,-3.3728 -2.25649,-6.09863 z"
       id="path886-1"
       sodipodi:nodetypes="zszssz" />
    <ellipse
       style="fill:#000000;fill-opacity:1;stroke:#000000;stroke-width:2.06724;stroke-linecap:round;stroke-linejoin:round;stroke-miterlimit:4;stroke-dasharray:none;stroke-opacity:1;paint-order:stroke fill markers"
       id="path908"
       cx="99.394875"
       cy="109.28181"
       rx="1.9789282"
       ry="2.7107644" />
    <ellipse
       style="fill:#000000;fill-opacity:1;stroke:#000000;stroke-width:2.06724;stroke-linecap:round;stroke-linejoin:round;stroke-miterlimit:4;stroke-dasharray:none;stroke-opacity:1;paint-order:stroke fill markers"
       id="path908-1"
       cx="131.71764"
       cy="109.22082"
       rx="1.9789282"
       ry="2.7107644" />
    <path
       style="fill:none;stroke:#000000;stroke-width:2;stroke-linecap:butt;stroke-linejoin:miter;stroke-miterlimit:4;stroke-dasharray:none;stroke-opacity:1"
       d="m 124.96934,98.057346 c 0,0 4.48488,-2.932423 7.93479,-2.759927 3.4499,0.172495 7.07231,4.657376 7.07231,4.657376"
       id="path932"
       sodipodi:nodetypes="csc" />
    <path
       style="fill:none;stroke:#000000;stroke-width:2;stroke-linecap:butt;stroke-linejoin:miter;stroke-miterlimit:4;stroke-dasharray:none;stroke-opacity:1"
       d="m 90.470247,100.64478 c 0,0 3.44991,-4.657379 7.24481,-4.829875 3.794903,-0.172495 7.417303,2.069945 7.417303,2.069945"
       id="path934"
       sodipodi:nodetypes="csc" />
    <path
       style="fill:none;stroke:#000000;stroke-width:2;stroke-linecap:round;stroke-linejoin:miter;stroke-miterlimit:4;stroke-dasharray:none;stroke-opacity:1"
       d="m 75.980637,111.51199 c 0,0 3.27741,2.24244 3.7949,5.00237 0.51748,2.75992 0,6.72732 0,6.72732"
       id="path936" />
    <path
       style="fill:none;stroke:#000000;stroke-width:2;stroke-linecap:round;stroke-linejoin:miter;stroke-miterlimit:4;stroke-dasharray:none;stroke-opacity:1"
       d="m 157.05348,111.68448 c 0,0 -3.6224,2.93243 -4.13989,6.20984 -0.51748,3.27741 0.34499,6.20983 0.34499,6.20983"
       id="path938" />
    <path
       style="fill:none;stroke:#000000;stroke-width:2;stroke-linecap:round;stroke-linejoin:miter;stroke-miterlimit:4;stroke-dasharray:none;stroke-opacity:1"
       d="m 109.27225,122.3792 c 0,0 2.24244,4.48488 5.86485,3.96739 4.10539,-0.58648 5.51985,-4.13989 5.51985,-4.13989"
       id="path940"
       sodipodi:nodetypes="csc" />
    <path
       style="fill:none;stroke:#000000;stroke-width:2;stroke-linecap:round;stroke-linejoin:miter;stroke-miterlimit:4;stroke-dasharray:none;stroke-opacity:1"
       d="m 117.66534,140.17762 c 0.0427,0 2.58881,0.50523 7.30579,-1.04723 4.81895,-1.58602 6.11925,-2.63796 6.11925,-2.63796"
       id="path944"
       sodipodi:nodetypes="csc" />
    <path
       style="fill:none;stroke:#031c8b;stroke-width:2;stroke-linecap:butt;stroke-linejoin:miter;stroke-miterlimit:4;stroke-dasharray:none;stroke-opacity:1"
       d="m 127.75353,172.82957 c 0,0 7.19638,-2.62241 11.03852,-5.18384 3.84214,-2.56142 6.15962,-5.91567 6.15962,-5.91567"
       id="path946"
       sodipodi:nodetypes="csc" />
    <path
       style="fill:#e4d2c5;fill-opacity:1;stroke:#000000;stroke-width:2;stroke-linecap:butt;stroke-linejoin:miter;stroke-miterlimit:4;stroke-dasharray:none;stroke-opacity:1"
       d="m 32.980747,229.79082 c 0,0 -5.61074,-9.26993 -0.24394,-16.83223 5.3668,-7.56231 19.8929,-15.19496 21.46719,-15.85645 2.05261,-0.86248 17.83423,-5.71634 19.67333,-6.96111 3.46704,-2.34664 11.30773,-6.69983 12.28351,-8.40745 0.97578,-1.70762 2.6834,-3.17129 2.6834,-3.17129 0,0 -4.8789,-8.53809 -1.95156,-15.6125 2.92734,-7.07442 13.416993,-9.26993 13.416993,-9.26993 0,0 7.3186,-17.80768 11.70938,-20.9793 4.39083,-3.17166 6.29293,-1.29631 6.40357,1.03677 0.26109,5.50612 -8.11119,19.69859 -8.11119,19.69859 0,0 4.39102,-2.92735 7.07442,-2.19551 2.6834,0.73183 3.65918,5.61074 3.41523,5.3668 -0.24394,-0.24395 3.0435,-1.04466 4.10522,0.10104 2.02856,2.18903 0.69576,4.10206 0.87653,5.32674 1.74918,1.06223 2.88721,2.30011 3.04752,5.37816 0.14603,2.80373 -1.25978,5.78234 -1.86964,6.8801 -1.21973,2.19551 -4.9399,7.92822 -8.53809,10.36768 -3.45034,2.33921 -19.030283,9.34391 -21.774663,11.53942 -2.74439,2.19551 -6.72921,5.33651 -9.72732,10.94704 -2.99812,5.61054 -5.38745,7.77534 -8.81253,11.49593 -3.42508,3.72058 -15.07355,13.92804 -17.31758,15.29457 -3.30193,2.01075 -9.38641,4.58696 -15.66662,3.21315 -9.09892,-1.99042 -12.14315,-7.36022 -12.14315,-7.36022 z"
       id="path851"
       sodipodi:nodetypes="csssscscsscssscssszzzsscc" />
    <path
       style="fill:none;stroke:#000000;stroke-width:2;stroke-linecap:round;stroke-linejoin:miter;stroke-miterlimit:4;stroke-dasharray:none;stroke-opacity:1"
       d="m 41.309057,129.7965 c 0,0 -4.18124,3.6359 -4.30321,8.02692 -0.12197,4.39101 1.21973,6.34257 1.21973,6.34257"
       id="path948" />
    <path
       style="fill:none;stroke:#000000;stroke-width:2;stroke-linecap:round;stroke-linejoin:miter;stroke-miterlimit:4;stroke-dasharray:none;stroke-opacity:1"
       d="m 51.486287,128.41654 c 0,0.0812 -5.02386,3.80399 -5.33249,6.72348 -0.43075,4.07474 -0.60843,3.46853 0.9148,6.40356 0,0 2.07353,2.43945 4.69595,2.62241 2.80121,0.19544 7.5623,-0.48789 9.14795,-0.36592 1.58564,0.12198 5.24482,2.80538 5.24482,3.53721"
       id="path950"
       sodipodi:nodetypes="cssssc" />
    <path
       style="fill:none;stroke:#000000;stroke-width:2;stroke-linecap:butt;stroke-linejoin:miter;stroke-miterlimit:4;stroke-dasharray:none;stroke-opacity:1"
       d="m 59.251067,129.84467 c 0,0 -0.41875,3.19268 -0.66398,5.76051 -0.63629,6.66269 0.90272,9.35048 -0.63333,8.13391"
       id="path952"
       sodipodi:nodetypes="csc" />
    <path
       style="fill:none;stroke:#000000;stroke-width:2;stroke-linecap:round;stroke-linejoin:miter;stroke-miterlimit:4;stroke-dasharray:none;stroke-opacity:1"
       d="m 47.068597,141.54358 c 0,0 -1.35072,0.89028 -2.56143,2.86636 -1.11599,1.82148 -0.34339,4.96346 1.40269,6.03765 1.54177,0.9485 7.37935,3.96411 7.37935,3.96411 0,0 -6.52429,-2.63725 -9.33092,-2.86636 -2.98833,-0.24394 -4.37656,0.8873 -5.06186,1.82959 l -1.46367,2.01255"
       id="path954"
       sodipodi:nodetypes="csscssc" />
    <path
       style="fill:none;stroke:#000000;stroke-width:2;stroke-linecap:round;stroke-linejoin:miter;stroke-miterlimit:4;stroke-dasharray:none;stroke-opacity:1"
       d="m 35.616707,161.70816 c 0,0 3.58465,1.85149 6.75594,1.3636 3.17129,-0.48789 3.62346,-2.34708 3.62346,-2.34708 0,0 -0.0862,3.20089 2.23123,3.44483 2.31748,0.24395 7.14586,0.68999 7.14586,0.68999"
       id="path956"
       sodipodi:nodetypes="cscsc" />
    <path
       style="fill:none;stroke:#e00606;stroke-width:5;stroke-linecap:round;stroke-linejoin:miter;stroke-miterlimit:4;stroke-dasharray:none;stroke-opacity:1"
       d="m 68.596777,116.35622 c 0,0 -8.78204,0.73184 -6.34258,8.53809 2.43945,7.80625 12.9291,14.88067 22.93086,18.2959 10.00176,3.41524 25.370323,1.21973 25.370323,1.21973"
       id="path962" />
    <path
       style="fill:#e00606;fill-opacity:1;stroke:#e00606;stroke-width:2;stroke-linecap:butt;stroke-linejoin:miter;stroke-miterlimit:4;stroke-dasharray:none;stroke-opacity:1"
       d="m 115.73024,144.58243 -11.80535,-7.71362 v 15.52459 z"
       id="path1386" />
  </g>
</svg>
